<svg width="22" height="22" viewBox="0 0 22 22" fill="none" xmlns="http://www.w3.org/2000/svg">
<path d="M0.424036 0.424036C-0.141345 0.989418 -0.141345 21.0106 0.424036 21.576C0.989418 22.1413 21.0106 22.1413 21.576 21.576C22.1413 21.0106 22.1413 0.989418 21.576 0.424036C21.0106 -0.141344 0.989418 -0.141344 0.424036 0.424036ZM19.9796 4.01587V6.01134H11H2.02041V4.01587V2.02041H11H19.9796V4.01587ZM15.4565 9.53666C16.1882 10.2351 16.1882 13.7604 15.4565 14.4588C15.124 14.8246 14.3258 14.9909 12.9955 14.9909C10.4346 14.9909 10.0023 14.5586 10.0023 11.9977C10.0023 10.6674 10.1686 9.86924 10.5344 9.53666C10.867 9.17082 11.6652 9.00454 12.9955 9.00454C14.3258 9.00454 15.124 9.17082 15.4565 9.53666ZM7.67423 10.0023C7.67423 10.4346 7.44142 10.6674 7.00907 10.6674C6.57672 10.6674 6.34392 10.4346 6.34392 10.0023C6.34392 9.56992 6.57672 9.33711 7.00907 9.33711C7.44142 9.33711 7.67423 9.56992 7.67423 10.0023ZM19.647 10.0023C19.647 10.4346 19.4142 10.6674 18.9819 10.6674C18.5495 10.6674 18.3167 10.4346 18.3167 10.0023C18.3167 9.56992 18.5495 9.33711 18.9819 9.33711C19.4142 9.33711 19.647 9.56992 19.647 10.0023ZM3.6833 13.9932C3.6833 14.4255 3.45049 14.6584 3.01814 14.6584C2.58579 14.6584 2.35299 14.4255 2.35299 13.9932C2.35299 13.5608 2.58579 13.328 3.01814 13.328C3.45049 13.328 3.6833 13.5608 3.6833 13.9932ZM7.67423 13.9932C7.67423 14.4255 7.44142 14.6584 7.00907 14.6584C6.57672 14.6584 6.34392 14.4255 6.34392 13.9932C6.34392 13.5608 6.57672 13.328 7.00907 13.328C7.44142 13.328 7.67423 13.5608 7.67423 13.9932ZM19.647 13.9932C19.647 14.4255 19.4142 14.6584 18.9819 14.6584C18.5495 14.6584 18.3167 14.4255 18.3167 13.9932C18.3167 13.5608 18.5495 13.328 18.9819 13.328C19.4142 13.328 19.647 13.5608 19.647 13.9932ZM3.6833 17.9841C3.6833 18.4165 3.45049 18.6493 3.01814 18.6493C2.58579 18.6493 2.35299 18.4165 2.35299 17.9841C2.35299 17.5518 2.58579 17.319 3.01814 17.319C3.45049 17.319 3.6833 17.5518 3.6833 17.9841ZM7.67423 17.9841C7.67423 18.4165 7.44142 18.6493 7.00907 18.6493C6.57672 18.6493 6.34392 18.4165 6.34392 17.9841C6.34392 17.5518 6.57672 17.319 7.00907 17.319C7.44142 17.319 7.67423 17.5518 7.67423 17.9841ZM11.6652 17.9841C11.6652 18.4165 11.4324 18.6493 11 18.6493C10.5676 18.6493 10.3348 18.4165 10.3348 17.9841C10.3348 17.5518 10.5676 17.319 11 17.319C11.4324 17.319 11.6652 17.5518 11.6652 17.9841ZM15.6561 17.9841C15.6561 18.4165 15.4233 18.6493 14.9909 18.6493C14.5586 18.6493 14.3258 18.4165 14.3258 17.9841C14.3258 17.5518 14.5586 17.319 14.9909 17.319C15.4233 17.319 15.6561 17.5518 15.6561 17.9841Z" fill="#88A795"/>
<path d="M12 12C12 12.9 12.1 13 13 13C13.9 13 14 12.9 14 12C14 11.1 13.9 11 13 11C12.1 11 12 11.1 12 12Z" fill="#88A795"/>
</svg>
