<svg width="22" height="24" viewBox="0 0 22 24" fill="none" xmlns="http://www.w3.org/2000/svg">
<path fill-rule="evenodd" clip-rule="evenodd" d="M17.1539 24.0001C16.1791 24.0003 15.2251 23.684 14.5135 22.9623L1.67982 9.9448C-0.55994 7.6729 -0.55994 3.97608 1.67982 1.70403C3.92008 -0.568011 7.56444 -0.568011 9.80434 1.70403L21.8375 13.9099C22.0542 14.1294 22.0542 14.4855 21.8375 14.7048C21.6211 14.9245 21.2704 14.9245 21.0538 14.7048L9.02029 2.49938C7.21279 0.666005 4.27159 0.665932 2.46387 2.49938C0.6563 4.33284 0.6563 7.316 2.46387 9.1496L15.2974 22.167C16.4593 23.3453 18.6557 22.9465 19.7694 21.8168C20.8832 20.6869 21.2765 18.4595 20.1149 17.2808L8.26595 5.26223C7.86025 4.85073 7.31838 4.62409 6.73979 4.62409C6.1612 4.62409 5.61927 4.8508 5.21364 5.26223C4.37203 6.11589 4.37203 7.50458 5.21364 8.35817L14.8252 18.1074C15.0418 18.3269 15.0418 18.683 14.8252 18.9025C14.6085 19.1222 14.2579 19.1222 14.0412 18.9025L4.42937 9.15352C3.15565 7.86134 3.15565 5.75899 4.42937 4.46703C5.04433 3.84319 5.86482 3.49965 6.73958 3.49965C7.61434 3.49965 8.43497 3.84312 9.04986 4.46703L20.8988 16.4857C22.5284 18.1389 22.0605 21.0837 20.5533 22.6122C19.7046 23.4735 18.412 24.0001 17.1539 24.0001Z" fill="#303030"/>
</svg>
