<svg width="25" height="31" viewBox="0 0 25 31" fill="none" xmlns="http://www.w3.org/2000/svg">
<g id="Black">
<path id="Vector" d="M8.28088 0.403461C3.18753 2.32294 0.336772 6.23869 0.0326914 11.6516C-0.271389 17.0646 1.51508 20.5196 6.68446 24.3586C9.15511 26.2013 9.72526 26.8539 10.5615 28.7734C11.3977 30.6545 11.7018 31 12.5 31C13.2982 31 13.6023 30.6545 14.4385 28.7734C15.2747 26.8539 15.8449 26.2013 18.3155 24.3586C23.4849 20.5196 25.2714 17.0646 24.9673 11.6516C24.7012 6.89131 22.6107 3.51302 18.5056 1.24803C16.7951 0.288292 15.9969 0.096344 13.0702 0.0195656C10.8656 -0.0572147 9.15511 0.096344 8.28088 0.403461ZM14.6666 10.3464C16.6051 12.1891 15.2367 15.6441 12.538 15.6441C10.7515 15.6441 9.45919 14.4157 9.45919 12.6114C9.45919 9.84731 12.652 8.4269 14.6666 10.3464Z" fill="#303030"/>
</g>
</svg>
