<svg width="62" height="62" viewBox="0 0 62 62" fill="none" xmlns="http://www.w3.org/2000/svg">
<g clip-path="url(#clip0_572_2883)">
<path d="M36.2294 57.8343H0.662071C0.336462 57.8343 0 57.5087 0 57.1831V8.99301C0 8.66741 0.325609 8.3418 0.662071 8.3418H8.45497C8.78058 8.3418 9.11704 8.66741 9.11704 8.99301V12.7918H27.883V8.99301C27.883 8.66741 28.2086 8.3418 28.545 8.3418H36.3379C36.6635 8.3418 37 8.66741 37 8.99301V57.1831C36.8915 57.5087 36.5659 57.8343 36.2294 57.8343ZM1.20475 56.5319H35.5673V9.5357H28.9792V13.3345C28.9792 13.6601 28.6536 13.9857 28.3171 13.9857H8.45497C8.12936 13.9857 7.7929 13.6601 7.7929 13.3345V9.5357H1.20475V56.5319Z" fill="white"/>
<path d="M28.4366 13.9853H8.45504C8.12943 13.9853 7.79297 13.6597 7.79297 13.3341V4.65122C7.79297 4.32561 8.11858 4 8.45504 4H28.5451C28.8707 4 29.2072 4.32561 29.2072 4.65122V13.3341C29.0986 13.6597 28.773 13.9853 28.4366 13.9853ZM9.00857 12.6829H27.7745V5.1939H9.00857V12.6829Z" fill="white"/>
<path d="M5.81764 20.8232H3.84229V22.7769H5.81764V20.8232Z" fill="white"/>
<path d="M10.3218 20.8232H8.34644V22.7769H10.3218V20.8232Z" fill="white"/>
<path d="M14.9346 20.8232H12.9592V22.7769H14.9346V20.8232Z" fill="white"/>
<path d="M19.428 20.8232H17.4526V22.7769H19.428V20.8232Z" fill="white"/>
<path d="M23.9321 20.8232H21.9568V22.7769H23.9321V20.8232Z" fill="white"/>
<path d="M28.5449 20.8232H26.5696V22.7769H28.5449V20.8232Z" fill="white"/>
<path d="M33.0493 20.8232H31.074V22.7769H33.0493V20.8232Z" fill="white"/>
<path d="M32.9407 18.3268H3.95065C3.62504 18.3268 3.28857 18.0012 3.28857 17.6756C3.28857 17.35 3.61418 17.0244 3.95065 17.0244H32.9407C33.2663 17.0244 33.6027 17.35 33.6027 17.6756C33.6027 18.0012 33.2771 18.3268 32.9407 18.3268Z" fill="white"/>
<path d="M18.4511 49.5853C13.1218 49.5853 8.68286 45.2721 8.68286 39.8171C8.68286 34.3621 13.1218 30.0488 18.4511 30.0488C23.7804 30.0488 28.2194 34.3621 28.2194 39.8171C28.2194 45.2721 23.7804 49.5853 18.4511 49.5853ZM18.4511 31.5712C13.8867 31.5712 10.0747 35.2501 10.0747 39.8171C10.0747 44.3841 13.7488 48.063 18.4511 48.063C23.1534 48.063 26.8275 44.3841 26.8275 39.8171C26.8275 35.2501 23.028 31.5712 18.4511 31.5712Z" fill="white"/>
<path d="M19.1724 42.6601C19.4105 42.5308 19.6485 42.4016 19.8984 42.2724C20.0174 42.014 20.1364 41.7556 20.1364 41.4972C20.1364 41.2387 20.0174 40.9803 19.8984 40.8511C19.7794 40.5927 19.5414 40.4635 19.1724 40.4635V42.6601ZM18.4465 36.3288C18.2085 36.458 18.0895 36.5872 17.9704 36.7164C17.8514 36.8456 17.7324 37.104 17.7324 37.3625C17.7324 37.6209 17.7324 37.7501 17.8514 38.0085C17.9704 38.1377 18.0895 38.3961 18.3275 38.3961L18.4465 36.3288ZM18.4465 42.6601V40.2051C17.7205 39.9466 17.2445 39.6882 16.8875 39.1714C16.5304 38.6545 16.4114 38.1377 16.4114 37.4917C16.4114 36.8456 16.6494 36.3288 17.0184 35.8119C17.3754 35.4243 17.8633 35.1659 18.5774 35.0367V34.3906H19.4224V35.0367C20.0293 35.1659 20.5053 35.2951 20.8624 35.6827C21.2194 36.0704 21.4693 36.458 21.5883 37.104L20.1483 37.3625C20.0293 36.8456 19.7913 36.5872 19.4224 36.458V38.7838C20.2673 39.0422 20.9933 39.4298 21.2313 39.8174C21.5883 40.2051 21.7073 40.7219 21.7073 41.368C21.7073 42.1432 21.4693 42.6601 21.1004 43.1769C20.7434 43.6937 20.1364 43.9522 19.4105 44.0814V45.2442H18.5655V44.0814C17.9585 43.9522 17.3635 43.6937 17.0065 43.3061C16.6494 42.9185 16.3995 42.2724 16.2805 41.4972L17.7205 41.368C17.7205 41.6264 17.8395 42.014 18.0776 42.1432C17.9585 42.4016 18.1966 42.5308 18.4346 42.6601H18.4465Z" fill="white"/>
</g>
<defs>
<clipPath id="clip0_572_2883">
<rect width="37" height="53.834" fill="white" transform="translate(0 4)"/>
</clipPath>
</defs>
</svg>
