<svg width="75" height="75" viewBox="0 0 75 75" fill="none" xmlns="http://www.w3.org/2000/svg">
<g clip-path="url(#clip0_1067_29588)">
<path d="M35.9399 67C20.0037 67 7 54.0295 7 38C7 21.9705 20.0037 9 35.9399 9C43.7157 9 51.0108 12.0591 56.4911 17.443C61.9594 22.9494 65 30.1688 65 38C65 53.9072 51.9963 67 35.9399 67ZM35.9399 10.2236C20.7368 10.2236 8.33402 22.5823 8.33402 37.8776C8.33402 53.173 20.7368 65.5316 35.9279 65.5316C51.1189 65.5316 63.5218 53.173 63.5218 37.8776C63.5218 22.5823 51.131 10.2236 35.9399 10.2236Z" fill="white"/>
<path d="M36.5 60C24.1317 60 14 50.3784 14 38.5C14 26.6215 24.1317 17 36.5 17C48.8683 17 59 26.6215 59 38.5C59 50.3784 48.8683 60 36.5 60ZM36.5 18.3066C24.8772 18.3066 15.3566 27.3343 15.3566 38.5C15.3566 49.6657 24.8772 58.6934 36.5 58.6934C48.1228 58.6934 57.6434 49.547 57.6434 38.5C57.6434 27.453 48.1228 18.3066 36.5 18.3066Z" fill="white"/>
<path d="M34.9992 53C26.6703 53 20 46.3333 20 38C20 29.6667 26.7879 23 34.9992 23C43.2106 23 49.9985 29.6667 49.9985 38C50.1161 46.2143 43.34 53 34.9992 53ZM34.9992 24.3095C27.3879 24.3095 21.3176 30.381 21.3176 38C21.3176 45.619 27.5055 51.6905 34.9992 51.6905C42.493 51.6905 48.6809 45.619 48.6809 38C48.6809 30.381 42.6106 24.3095 34.9992 24.3095Z" fill="white"/>
<path d="M35.5 47C30.7578 47 27 43.2357 27 38.5C27 33.7643 30.7698 30 35.5 30C40.2302 30 44 33.7643 44 38.5C44 43.2357 40.2302 47 35.5 47ZM35.5 31.3357C31.6102 31.3357 28.3326 34.4929 28.3326 38.3786C28.3326 42.2643 31.4901 45.4214 35.5 45.4214C39.5099 45.4214 42.6674 42.2643 42.6674 38.3786C42.6674 34.4929 39.5099 31.3357 35.5 31.3357Z" fill="white"/>
<path d="M35.6599 38C35.5399 38 35.3 37.8807 35.18 37.7614C34.94 37.5229 34.94 37.0457 35.18 36.8072L62.8482 8.17893C63.0881 7.94036 63.5801 7.94036 63.82 8.17893C64.06 8.4175 64.06 8.89463 63.82 9.1332L36.1398 37.7614C36.0199 38 35.8999 38 35.6599 38Z" fill="white"/>
<path d="M60.5 13C60.2541 13 60 12.6471 60 12.2941V7.70588C60 7.35294 60.1639 7 60.5 7C60.7459 7 61 7.35294 61 7.70588V12.2941C61 12.7647 60.7541 13 60.5 13Z" fill="white"/>
<path d="M60.6945 13C60.3529 13 60 12.8333 60 12.5833C60 12.3333 60.2277 12.0833 60.5806 12.0833L65.3055 12C65.6471 12 66 12.1667 66 12.4167C66 12.6667 65.7723 12.9167 65.4194 12.9167L60.6945 13Z" fill="white"/>
<path d="M9.66174 67C9.54357 67 9.30724 66.8815 9.17725 66.763C8.94092 66.5259 8.94092 66.0519 9.17725 65.8148L15.8656 59.1778C16.1019 58.9407 16.5864 58.9407 16.8227 59.1778C17.0591 59.4148 17.0591 59.8889 16.8227 60.1259L10.1226 66.763C10.0044 67 9.88626 67 9.64993 67H9.66174Z" fill="white"/>
<path d="M61.3501 67C61.2319 67 60.9956 66.8815 60.8656 66.763L54.1773 60.1259C53.9409 59.8889 53.9409 59.4148 54.1773 59.1778C54.4136 58.9407 54.8981 58.9407 55.1344 59.1778L61.8227 65.8148C62.0591 66.0519 62.0591 66.5259 61.8227 66.763C61.7046 67 61.5864 67 61.3501 67Z" fill="white"/>
</g>
<defs>
<clipPath id="clip0_1067_29588">
<rect width="59" height="60" fill="white" transform="translate(7 7)"/>
</clipPath>
</defs>
</svg>
