<svg width="18" height="19" viewBox="0 0 18 19" fill="none" xmlns="http://www.w3.org/2000/svg">
<path d="M7.96948 3.21305V5.50016H7.39771C6.9784 5.50016 6.82593 5.59546 6.82593 5.84323C6.82593 6.26253 8.16008 7.59668 8.56032 7.59668C8.94151 7.59668 10.2566 6.22441 10.2566 5.82417C10.2566 5.59546 10.1041 5.50016 9.68482 5.50016H9.11304V3.21305V0.92594H8.54126H7.96948V3.21305Z" fill="currentColor"/>
<path d="M3.62397 4.68045C2.32794 5.38564 1.87052 5.78588 1.01285 6.87226C-0.321294 8.56853 -0.321294 8.9116 0.917558 9.80739L1.85146 10.4745L1.90864 12.3232L1.96582 14.1529L5.0153 16.116C6.80687 17.2596 8.25537 18.0791 8.54126 18.0791C8.82715 18.0791 10.2757 17.2596 12.0672 16.116L15.1167 14.1529L15.1739 12.3232L15.2311 10.4745L16.165 9.80739C17.4038 8.9116 17.4038 8.56853 16.0697 6.87226C15.1929 5.76682 14.7546 5.38564 13.4204 4.66139C11.5145 3.61313 10.8284 3.53689 10.8284 4.29926C10.8284 4.75668 10.9999 4.92822 11.8766 5.4047C12.4484 5.70965 12.9249 6.01459 12.9249 6.07177C12.9249 6.14801 9.49422 8.43512 8.76997 8.83536C8.54126 8.94972 4.15763 6.31954 4.15763 6.07177C4.15763 6.01459 4.63411 5.72871 5.20589 5.4047C6.08262 4.92822 6.25415 4.75668 6.25415 4.31832C6.25415 3.8609 6.17791 3.78466 5.73955 3.80372C5.4346 3.80372 4.5007 4.20397 3.62397 4.68045ZM5.03436 8.58759C6.23509 9.3309 7.20711 10.017 7.20711 10.0933C7.20711 10.1695 6.8831 10.4935 6.48286 10.7985L5.75861 11.3702L3.73833 9.9408L1.69899 8.51136L2.19453 7.86334C2.46136 7.50122 2.72819 7.21533 2.76631 7.21533C2.82348 7.21533 3.83362 7.82522 5.03436 8.58759ZM14.888 7.86334L15.3835 8.4923L13.3633 9.9408L11.343 11.3893L10.5997 10.7985C10.1994 10.4745 9.87541 10.1505 9.91353 10.0552C9.97071 9.90268 14.0684 7.23439 14.2781 7.21533C14.3543 7.21533 14.6212 7.50122 14.888 7.86334Z" fill="currentColor"/>
<mask id="mask0_572_2797" style="mask-type:alpha" maskUnits="userSpaceOnUse" x="0" y="0" width="18" height="18">
<rect width="18" height="18" fill="#D9D9D9"/>
</mask>
<g mask="url(#mask0_572_2797)">
</g>
</svg>
