<svg width="18" height="18" viewBox="0 0 18 18" fill="none" xmlns="http://www.w3.org/2000/svg">
<mask id="mask0_572_2777" style="mask-type:alpha" maskUnits="userSpaceOnUse" x="0" y="0" width="18" height="18">
<rect width="18" height="18" fill="#D9D9D9"/>
</mask>
<g mask="url(#mask0_572_2777)">
<path d="M4.91633 2.68484C4.57767 3.0235 4.11947 3.28248 3.82065 3.28248C3.1234 3.28248 2.16717 4.29847 2.16717 5.05549C2.16717 5.45392 2.06756 5.67305 1.88827 5.67305C1.7289 5.67305 1.56953 5.8125 1.48984 5.97188C1.35039 6.37031 1.54961 6.86834 1.86835 6.86834C2.02772 6.86834 2.20701 7.3863 2.34646 8.30269L2.5656 9.75695L1.76874 10.4741C0.77267 11.3706 0.653141 12.2471 1.50976 12.2471C1.78866 12.2471 2.18709 12.1077 2.38631 11.9284C2.76481 11.5897 2.80466 11.6694 3.06364 13.6815C3.26285 15.1756 3.4023 15.2354 6.35068 15.2354C8.42251 15.2354 8.98031 15.1756 9.21937 14.9166C9.39866 14.7572 9.53811 14.5779 9.53811 14.5381C9.53811 14.5182 9.75724 12.8448 10.0361 10.8327C10.315 8.82064 10.5342 7.1074 10.5342 7.00779C10.5342 6.92811 10.6537 6.86834 10.8131 6.86834C11.1517 6.86834 11.3709 6.39023 11.2115 5.97188C11.1318 5.8125 10.9725 5.67305 10.8131 5.67305C10.6338 5.67305 10.5342 5.45392 10.5342 5.05549C10.5342 4.29847 9.57795 3.28248 8.8807 3.28248C8.58188 3.28248 8.12369 3.0235 7.78502 2.68484C7.30691 2.20672 7.00808 2.08719 6.35068 2.08719C5.69327 2.08719 5.39445 2.20672 4.91633 2.68484ZM7.08777 4.07934C7.26706 4.45785 7.52604 4.5973 8.18345 4.67698C8.8807 4.75667 9.05999 4.85628 9.09984 5.21486C9.1596 5.67305 9.1596 5.67305 6.35068 5.67305C3.54175 5.67305 3.54175 5.67305 3.60152 5.21486C3.64136 4.85628 3.80073 4.75667 4.5179 4.71683C5.09562 4.67698 5.41437 4.53753 5.49405 4.3184C5.83272 3.34225 6.66942 3.22272 7.08777 4.07934ZM6.74911 7.40622C6.74911 7.60544 5.89248 8.5019 4.85657 9.41829C3.00387 11.0319 2.96403 11.0518 2.8445 10.5339C2.72497 10.0956 2.86442 9.8964 3.78081 9.09954C4.35853 8.58159 5.11555 7.92418 5.45421 7.62536C6.15146 7.00779 6.74911 6.90819 6.74911 7.40622Z" fill="currentColor"/>
<path d="M13.7814 2.0273C13.5822 2.10699 13.5224 2.82416 13.5224 4.79638C13.5224 7.2268 13.4826 7.46586 13.1638 7.46586C12.626 7.46586 12.3271 7.86429 12.3271 8.60138V9.25879H14.1201H15.913V8.60138C15.913 7.86429 15.6142 7.46586 15.0763 7.46586C14.7576 7.46586 14.7177 7.2268 14.7177 4.79638C14.7177 2.42573 14.6779 2.12691 14.3791 2.04722C14.1798 1.98746 13.9009 1.98746 13.7814 2.0273Z" fill="currentColor"/>
<path d="M11.6896 11.3905C11.4705 11.9284 11.2314 12.9643 11.1716 13.7811L11.072 15.2354H14.12H17.168L17.0684 13.7811C17.0086 12.9643 16.7696 11.9284 16.5504 11.3905L16.1321 10.4542H14.12H12.1079L11.6896 11.3905Z" fill="currentColor"/>
</g>
</svg>
