<svg width="18" height="18" viewBox="0 0 18 18" fill="none" xmlns="http://www.w3.org/2000/svg">
<mask id="mask0_572_2772" style="mask-type:alpha" maskUnits="userSpaceOnUse" x="0" y="0" width="18" height="18">
<rect width="18" height="18" fill="#D9D9D9"/>
</mask>
<g mask="url(#mask0_572_2772)">
<path d="M5.30042 3.42201L2.0782 5.24423L2.01153 10.7553C1.96709 16.4887 2.01153 16.8887 2.8782 16.8887C3.2782 16.8887 3.30042 16.622 3.30042 11.5553V6.22201H9.30042H15.3004V11.5553C15.3004 16.622 15.3226 16.8887 15.7226 16.8887C16.5893 16.8887 16.6338 16.4887 16.5893 10.7553L16.5226 5.22201L13.3004 3.39978C10.9226 2.06645 9.8782 1.57756 9.30042 1.59978C8.74486 1.59978 7.58931 2.13312 5.30042 3.42201Z" fill="currentColor"/>
<path d="M8.63382 12.5556V14.2222H7.58937H6.52271L7.9227 15.6L9.30048 17L10.6783 15.6L12.0783 14.2222H11.0116H9.96715V12.5556V10.8889H9.30048H8.63382V12.5556Z" fill="currentColor"/>
<path d="M4.63379 8.55566V9.55566H9.30046H13.9671V8.55566V7.55566H9.30046H4.63379V8.55566Z" fill="currentColor"/>
</g>
</svg>
