<svg width="31" height="31" viewBox="0 0 31 31" fill="none" xmlns="http://www.w3.org/2000/svg">
<g id="Frame" clip-path="url(#clip0_5001_32738)">
<path id="Vector" d="M3.11063 20.5091V16.5165C3.11063 16.4073 3.19937 16.3186 3.30865 16.3186L7.66709 7.72276C6.73488 6.74164 5.98481 5.26388 6.77224 3.30256C6.88059 3.03371 7.19912 2.91982 7.45226 3.06078L30.5737 16.018C30.7689 16.1272 30.8894 16.3326 30.8894 16.5557V20.5091L32 21.3157V22.295C32 22.7085 31.6647 23.0427 31.2518 23.0427H30.5073V23.432C30.5073 23.8455 30.172 24.1797 29.7591 24.1797H28.6177C28.2982 24.1797 28.0395 24.4383 28.0395 24.7576V30.6919C28.0395 30.8628 27.9012 31 27.7312 31H27.2988C27.1287 31 26.9905 30.8618 26.9905 30.6919V25.9086C26.9905 24.9536 26.2161 24.1788 25.2596 24.1788H8.74036C7.78479 24.1788 7.0095 24.9527 7.0095 25.9086V30.6919C7.0095 30.8628 6.87125 31 6.70125 31H6.26877C6.09876 31 5.96052 30.8618 5.96052 30.6919V24.7576C5.96052 24.4383 5.70178 24.1797 5.38232 24.1797H4.24087C3.82707 24.1797 3.49267 23.8446 3.49267 23.432V23.0427H2.7482C2.3344 23.0427 2 22.7076 2 22.295V21.3157L3.11156 20.5091H3.11063ZM9.65389 9.16131C9.65389 9.16131 8.70766 8.73656 7.8427 7.8992L4.04845 16.3177H9.46894L11.197 13.0475H16.3205L9.65389 9.16131ZM31.4732 21.3157L30.3616 20.5138H3.63745L2.52589 21.3157H31.4732Z" fill="#303030"/>
</g>
<defs>
<clipPath id="clip0_5001_32738">
<rect width="31" height="31" fill="white"/>
</clipPath>
</defs>
</svg>
