<svg width="31" height="31" viewBox="0 0 31 31" fill="none" xmlns="http://www.w3.org/2000/svg">
<path fill-rule="evenodd" clip-rule="evenodd" d="M26.5637 28.3368H5.43602C3.54144 28.3368 2 26.7708 2 24.8463V3.49045C2 1.56585 3.54144 0 5.43602 0H26.564C28.4586 0 30 1.56597 30 3.49032V24.8463C29.9995 26.7708 28.4583 28.3368 26.5637 28.3368ZM10.1367 31H7.51541C7.12029 31 6.80028 30.675 6.80028 30.2736V29.0635H10.8519V30.2736C10.8519 30.675 10.5319 31 10.1367 31ZM24.4841 31H21.8628C21.4677 31 21.1476 30.675 21.1476 30.2736V29.0635H25.1996V30.2736C25.1994 30.675 24.8792 31 24.4841 31ZM11.3229 14.0152C11.9896 13.8512 12.4866 13.2398 12.4867 12.5128C12.487 11.6608 11.8038 10.9671 10.9653 10.9671C10.1268 10.9671 9.44385 11.6607 9.44385 12.5128C9.44385 13.2398 9.94079 13.8512 10.6078 14.0152V17.0063C10.6078 17.2073 10.7676 17.3698 10.9655 17.3698C11.1633 17.3698 11.3232 17.2072 11.3232 17.0063L11.3229 14.0152ZM10.9652 11.6936C10.5202 11.6936 10.1586 12.061 10.1586 12.513C10.1586 12.9651 10.5152 13.3268 10.9556 13.3321L10.9652 13.3319L10.9747 13.3321C11.415 13.3268 11.7715 12.9617 11.7715 12.513C11.7715 12.0643 11.41 11.6936 10.9652 11.6936ZM18.9124 15.659V17.4869C20.4392 17.3184 21.6552 16.083 21.8213 14.5318H20.022C19.8892 15.0865 19.4584 15.524 18.9124 15.659ZM20.0218 13.8052H21.8213C21.6555 12.2538 20.4392 11.0186 18.9124 10.85V12.678C19.4581 12.8132 19.8887 13.2508 20.0218 13.8052ZM18.197 12.6781V10.85C16.6702 11.0186 15.4544 12.2541 15.2884 13.8052H17.0874C17.2205 13.2508 17.6513 12.8134 18.197 12.6781ZM17.0874 14.5318H15.2884C15.4544 16.0829 16.6705 17.3184 18.197 17.4869V15.659C17.6513 15.5238 17.2205 15.0863 17.0874 14.5318ZM18.5549 13.3607C18.1192 13.3607 17.7649 13.7178 17.7598 14.1589V14.1782C17.7649 14.6194 18.1192 14.9761 18.5549 14.9761C18.9905 14.9761 19.3499 14.6143 19.3499 14.1687C19.3499 13.7231 18.9933 13.3607 18.5549 13.3607ZM18.5549 18.2333C20.756 18.2333 22.5481 16.4175 22.5557 14.1828L22.5562 14.1687L22.5557 14.1546C22.5481 11.9199 20.7561 10.1037 18.5549 10.1037C16.3536 10.1037 14.5535 11.9275 14.5535 14.1687C14.5535 16.4099 16.3485 18.2333 18.5549 18.2333ZM23.6104 24.0675C24.8073 24.0675 25.7815 23.0777 25.7815 21.8616V17.471H26.6525C26.8504 17.471 27.0103 17.3084 27.0103 17.1075V11.2289C27.0103 11.028 26.8505 10.8656 26.6525 10.8656H25.7815V6.47504C25.7815 5.25894 24.8072 4.26912 23.6099 4.26912H8.38925C7.1922 4.26912 6.21788 5.25894 6.21788 6.47504V21.8616C6.21788 23.0776 7.1922 24.0675 8.38925 24.0675H23.6104ZM25.4367 16.7446H26.2951V11.5923H24.6953V16.7444H25.4239L25.4367 16.7446ZM8.38925 4.99588C7.58621 4.99588 6.93314 5.65935 6.93314 6.47517V21.8616C6.93314 22.6774 7.58621 23.3408 8.38925 23.3408H23.6099C24.4129 23.3408 25.0661 22.6774 25.0661 21.8616V17.471H24.3281L24.3191 17.4705L24.3101 17.47L24.3009 17.4693L24.2919 17.468L24.2831 17.4668L24.2742 17.4653L24.2654 17.4635L24.2567 17.4618L24.2479 17.4595C24.0937 17.4193 23.9796 17.2771 23.9796 17.1076V11.2288C23.9796 11.0593 24.0937 10.9169 24.2479 10.8769L24.2564 10.8748L24.2652 10.8728L24.2739 10.871L24.2827 10.8695L24.2916 10.8682L24.3006 10.8672L24.3099 10.8664L24.3189 10.8659L24.3281 10.8655H24.3373H25.0662V6.47492C25.0662 5.6591 24.4133 4.99563 23.6103 4.99563L8.38925 4.99588Z" fill="#303030"/>
</svg>
