<svg width="18" height="18" viewBox="0 0 18 18" fill="none" xmlns="http://www.w3.org/2000/svg">
<mask id="mask0_572_2788" style="mask-type:alpha" maskUnits="userSpaceOnUse" x="0" y="0" width="18" height="18">
<rect width="18" height="18" fill="#D9D9D9"/>
</mask>
<g mask="url(#mask0_572_2788)">
<path d="M4.34494 1.40017C3.8283 1.97794 3.85076 3.48905 4.36741 3.95572C4.95144 4.46683 6.47892 4.44461 6.95064 3.9335C7.46729 3.35572 7.44482 1.84461 6.92818 1.37794C6.34414 0.866833 4.81666 0.889055 4.34494 1.40017Z" fill="currentColor"/>
<path d="M3.67093 5.39994C3.40138 5.68883 3.28906 6.22216 3.28906 7.15549V8.51105L5.96215 10.1555C7.75918 11.2444 8.68016 11.9333 8.72508 12.2222C8.81493 12.8444 12.4315 14.6888 13.1952 14.4888C13.7568 14.3333 15.8458 12.7999 15.8683 12.511C15.8683 12.3999 14.251 11.5333 12.2967 10.5555C8.74755 8.82216 8.70262 8.79994 8.63523 9.33327L8.56784 9.88883L7.93888 9.37771C7.46716 8.99994 7.22007 8.53327 6.95051 7.33327C6.77081 6.4666 6.45633 5.59994 6.25416 5.37771C5.78244 4.84438 4.16512 4.8666 3.67093 5.39994Z" fill="currentColor"/>
<path d="M13.8467 6.28894C12.7236 6.88894 12.5214 7.31117 12.9931 8.11117C13.375 8.75561 13.375 8.77783 12.9482 8.55561C12.7236 8.42228 12.3417 8.02228 12.1171 7.66672C11.6453 6.8445 10.949 6.80006 10.0954 7.53339C9.75845 7.82228 9.51136 8.11117 9.57875 8.17783C9.64614 8.22228 10.9715 8.93339 12.5663 9.75561C15.2843 11.1778 15.4191 11.2223 15.4416 10.7334C15.509 9.71117 15.3742 8.73339 15.0597 7.95561C14.8575 7.48894 14.7677 6.91117 14.8575 6.53339C15.0372 5.77783 14.9025 5.75561 13.8467 6.28894Z" fill="currentColor"/>
<path d="M3.19929 10.2444C3.1319 10.4444 3.06451 11.2222 3.06451 12.0222C3.06451 13.0444 2.90727 13.8222 2.48047 14.8667C1.78412 16.5111 1.87398 17 2.79495 17C3.40145 17 3.51377 16.8667 4.25504 15.1556C4.7043 14.1556 5.1311 13.3333 5.24341 13.3333C5.33326 13.3333 5.51296 14.0222 5.60282 14.8889C5.87237 16.9778 5.87237 17 6.65857 17H7.33246V14.6V12.2L5.42311 11.0444C4.36736 10.4222 3.46884 9.88889 3.42392 9.88889C3.37899 9.88889 3.26668 10.0444 3.19929 10.2444Z" fill="currentColor"/>
<path d="M14.3408 14.6C14.1836 14.7556 14.0713 15.2222 14.0713 15.6667C14.0713 16.1111 14.1836 16.5778 14.3408 16.7333C14.7003 17.0889 16.1379 17.0889 16.4973 16.7333C16.8567 16.3778 16.8567 14.9556 16.4973 14.6C16.1379 14.2444 14.7003 14.2444 14.3408 14.6Z" fill="currentColor"/>
</g>
</svg>
