<svg width="37" height="54" viewBox="0 0 37 54" fill="none" xmlns="http://www.w3.org/2000/svg">
<g clip-path="url(#clip0_1054_53781)">
<path d="M36.2294 53.8343H0.662071C0.336462 53.8343 0 53.5087 0 53.1831V4.99301C0 4.66741 0.325609 4.3418 0.662071 4.3418H8.45497C8.78058 4.3418 9.11704 4.66741 9.11704 4.99301V8.79178H27.883V4.99301C27.883 4.66741 28.2086 4.3418 28.545 4.3418H36.3379C36.6635 4.3418 37 4.66741 37 4.99301V53.1831C36.8915 53.5087 36.5659 53.8343 36.2294 53.8343ZM1.20475 52.5319H35.5673V5.5357H28.9792V9.33446C28.9792 9.66007 28.6536 9.98568 28.3171 9.98568H8.45497C8.12936 9.98568 7.7929 9.66007 7.7929 9.33446V5.5357H1.20475V52.5319Z" fill="white"/>
<path d="M28.4366 9.98533H8.45504C8.12943 9.98533 7.79297 9.65972 7.79297 9.33412V0.651217C7.79297 0.325609 8.11858 0 8.45504 0H28.5451C28.8707 0 29.2072 0.325609 29.2072 0.651217V9.33412C29.0986 9.65972 28.773 9.98533 28.4366 9.98533ZM9.00857 8.6829H27.7745V1.1939H9.00857V8.6829Z" fill="white"/>
<path d="M5.81764 16.8232H3.84229V18.7769H5.81764V16.8232Z" fill="white"/>
<path d="M10.3218 16.8232H8.34644V18.7769H10.3218V16.8232Z" fill="white"/>
<path d="M14.9346 16.8232H12.9592V18.7769H14.9346V16.8232Z" fill="white"/>
<path d="M19.428 16.8232H17.4526V18.7769H19.428V16.8232Z" fill="white"/>
<path d="M23.9321 16.8232H21.9568V18.7769H23.9321V16.8232Z" fill="white"/>
<path d="M28.5449 16.8232H26.5696V18.7769H28.5449V16.8232Z" fill="white"/>
<path d="M33.0493 16.8232H31.074V18.7769H33.0493V16.8232Z" fill="white"/>
<path d="M32.9407 14.3268H3.95065C3.62504 14.3268 3.28857 14.0012 3.28857 13.6756C3.28857 13.35 3.61418 13.0244 3.95065 13.0244H32.9407C33.2663 13.0244 33.6027 13.35 33.6027 13.6756C33.6027 14.0012 33.2771 14.3268 32.9407 14.3268Z" fill="white"/>
<path d="M18.4511 45.5853C13.1218 45.5853 8.68286 41.2721 8.68286 35.8171C8.68286 30.3621 13.1218 26.0488 18.4511 26.0488C23.7804 26.0488 28.2194 30.3621 28.2194 35.8171C28.2194 41.2721 23.7804 45.5853 18.4511 45.5853ZM18.4511 27.5712C13.8867 27.5712 10.0747 31.2501 10.0747 35.8171C10.0747 40.3841 13.7488 44.063 18.4511 44.063C23.1534 44.063 26.8275 40.3841 26.8275 35.8171C26.8275 31.2501 23.028 27.5712 18.4511 27.5712Z" fill="white"/>
<path d="M19.1724 38.6601C19.4105 38.5308 19.6485 38.4016 19.8984 38.2724C20.0174 38.014 20.1364 37.7556 20.1364 37.4972C20.1364 37.2387 20.0174 36.9803 19.8984 36.8511C19.7794 36.5927 19.5414 36.4635 19.1724 36.4635V38.6601ZM18.4465 32.3288C18.2085 32.458 18.0895 32.5872 17.9704 32.7164C17.8514 32.8456 17.7324 33.104 17.7324 33.3625C17.7324 33.6209 17.7324 33.7501 17.8514 34.0085C17.9704 34.1377 18.0895 34.3961 18.3275 34.3961L18.4465 32.3288ZM18.4465 38.6601V36.2051C17.7205 35.9466 17.2445 35.6882 16.8875 35.1714C16.5304 34.6545 16.4114 34.1377 16.4114 33.4917C16.4114 32.8456 16.6494 32.3288 17.0184 31.8119C17.3754 31.4243 17.8633 31.1659 18.5774 31.0367V30.3906H19.4224V31.0367C20.0293 31.1659 20.5053 31.2951 20.8624 31.6827C21.2194 32.0704 21.4693 32.458 21.5883 33.104L20.1483 33.3625C20.0293 32.8456 19.7913 32.5872 19.4224 32.458V34.7838C20.2673 35.0422 20.9933 35.4298 21.2313 35.8174C21.5883 36.2051 21.7073 36.7219 21.7073 37.368C21.7073 38.1432 21.4693 38.6601 21.1004 39.1769C20.7434 39.6937 20.1364 39.9522 19.4105 40.0814V41.2442H18.5655V40.0814C17.9585 39.9522 17.3635 39.6937 17.0065 39.3061C16.6494 38.9185 16.3995 38.2724 16.2805 37.4972L17.7205 37.368C17.7205 37.6264 17.8395 38.014 18.0776 38.1432C17.9585 38.4016 18.1966 38.5308 18.4346 38.6601H18.4465Z" fill="white"/>
</g>
<defs>
<clipPath id="clip0_1054_53781">
<rect width="37" height="53.834" fill="white"/>
</clipPath>
</defs>
</svg>
