<svg width="18" height="18" viewBox="0 0 18 18" fill="none" xmlns="http://www.w3.org/2000/svg">
<mask id="mask0_572_2837" style="mask-type:alpha" maskUnits="userSpaceOnUse" x="0" y="0" width="18" height="18">
<rect width="18" height="18" fill="#D9D9D9"/>
</mask>
<g mask="url(#mask0_572_2837)">
<path d="M0.666378 10.6305V8.20644C0.666378 8.14013 0.71962 8.08628 0.785192 8.08628L3.40026 2.86739C2.84093 2.27171 2.39089 1.3745 2.86335 0.183699C2.92836 0.0204665 3.11947 -0.0486804 3.27135 0.0369031L17.1442 7.90378C17.2613 7.97009 17.3336 8.09479 17.3336 8.23025V10.6305L18 11.1202V11.7148C18 11.9659 17.7988 12.1688 17.5511 12.1688H17.1044V12.4051C17.1044 12.6562 16.9032 12.8591 16.6555 12.8591H15.9706C15.7789 12.8591 15.6237 13.0161 15.6237 13.21V16.813C15.6237 16.9167 15.5407 17 15.4387 17H15.1793C15.0772 17 14.9943 16.9161 14.9943 16.813V13.9088C14.9943 13.329 14.5297 12.8586 13.9558 12.8586H4.04421C3.47087 12.8586 3.0057 13.3284 3.0057 13.9088V16.813C3.0057 16.9167 2.92275 17 2.82075 17H2.56126C2.45926 17 2.37631 16.9161 2.37631 16.813V13.21C2.37631 13.0161 2.22107 12.8591 2.02939 12.8591H1.34452C1.09624 12.8591 0.895601 12.6556 0.895601 12.4051V12.1688H0.448921C0.200642 12.1688 0 11.9653 0 11.7148V11.1202L0.666939 10.6305H0.666378ZM4.59234 3.7408C4.59234 3.7408 4.0246 3.48291 3.50562 2.97451L1.22907 8.08572H4.48137L5.5182 6.10029H8.59227L4.59234 3.7408ZM17.6839 11.1202L17.017 10.6334H0.982471L0.315535 11.1202H17.6839Z" fill="currentColor"/>
</g>
</svg>
