<svg width="75" height="75" viewBox="0 0 75 75" fill="none" xmlns="http://www.w3.org/2000/svg">
<g clip-path="url(#clip0_1067_29603)">
<path d="M23.9467 61.7094C23.9651 60.1256 24.1237 58.6726 24.3616 57.3252L24.3823 57.2078H24.2631H4.24933C3.94015 57.2078 3.64777 57.0815 3.43373 56.8569L3.43282 56.8559C3.21407 56.6323 3.10017 56.3266 3.1 56.0123C3.25029 45.3165 9.13124 39.8031 9.56189 39.3993C9.56835 39.3933 9.57357 39.3884 9.57754 39.3846C9.99935 39.0119 10.617 39.0059 11.0507 39.3628C14.5112 42.247 18.1034 42.2611 20.8344 41.5477C23.5572 40.8363 25.4282 39.4013 25.4751 39.3653L25.4753 39.3652L25.4753 39.3652L25.4769 39.3639C25.9151 39.0135 26.5331 39.0416 26.9444 39.4276L26.9446 39.4278C28.6231 40.9949 29.8288 42.8742 30.7066 44.8003L30.7434 44.8811L30.828 44.8541C31.1885 44.7389 31.5936 44.8081 31.8972 45.0611L31.8972 45.0611C35.3416 47.9291 38.8782 47.988 41.587 47.2995C44.2916 46.612 46.1738 45.1797 46.3294 45.0563L46.3296 45.0562C46.6608 44.7921 47.1046 44.746 47.4756 44.9126L47.5635 44.9521L47.6062 44.8658C49.3491 41.3451 51.353 39.5202 51.4963 39.3919C51.9181 39.0181 52.5366 39.0118 52.9707 39.3691C56.4311 42.2533 60.0234 42.2674 62.7543 41.5539C65.4771 40.8426 67.3481 39.4076 67.395 39.3716L67.3952 39.3714L67.3953 39.3715L67.3968 39.3702C67.8351 39.0198 68.453 39.0478 68.8644 39.4339L68.8644 39.4339C72.0095 42.3824 73.5221 46.4269 74.2457 49.7972C74.9691 53.1662 74.9018 55.85 74.8958 56.0652C74.8788 56.6957 74.37 57.2016 73.7525 57.2016H53.6101H53.4942L53.5112 57.3162C53.853 59.623 53.8333 61.342 53.8291 61.7037L23.9467 61.7094ZM23.9467 61.7094C23.9481 62.0208 24.0673 62.3254 24.2804 62.549C24.4943 62.7735 24.7927 62.9 25.096 62.9H52.6854C53.3022 62.9 53.811 62.3951 53.8286 61.7587L23.9467 61.7094ZM67.882 41.8433C65.5114 43.3076 58.929 46.4981 52.4792 41.9269V41.7049L52.3037 41.9066C51.5572 42.7645 50.3573 44.3758 49.3177 46.6967L49.2929 46.752L49.3304 46.7995C51.2784 49.2706 52.3882 52.1739 53.0169 54.7702L53.0354 54.8467H53.1141H72.4848H72.5901L72.5847 54.7415C72.4498 52.1403 71.739 45.9592 68.0085 41.8611L67.9526 41.7997L67.882 41.8433ZM31.364 47.5892L31.3379 47.5706H31.3059H31.2998H31.2539L31.224 47.6054C29.8184 49.238 26.7312 53.5536 26.2884 60.4324L26.2816 60.5388H26.3882H51.4115H51.5169L51.5114 60.4337C51.3766 57.8325 50.6657 51.6514 46.9352 47.5532L46.8794 47.4918L46.8087 47.5355C44.433 49.003 37.8333 52.2041 31.364 47.5892ZM5.44153 54.753L5.54153 54.7562V54.8467H24.8327H24.9084L24.9289 54.7738C26.0026 50.9564 27.7164 48.2692 28.9529 46.7121L28.989 46.6666L28.9674 46.6127C28.2968 44.9394 27.3787 43.2749 26.0885 41.861L26.0327 41.7998L25.9622 41.8432C23.5802 43.3108 16.9805 46.512 10.5112 41.8971L10.4369 41.8441L10.3773 41.9132C8.97857 43.5379 5.91435 47.8197 5.44835 54.6467H5.44153V54.7467V54.753Z" fill="#F8F8F8" stroke="#88A795" stroke-width="0.2"/>
<path d="M7.10002 26.7449L7.10002 26.7447C7.09391 23.6424 8.32319 20.7211 10.5504 18.5234C12.7777 16.3257 15.739 15.1122 18.8845 15.1122C24.7713 15.1122 29.6471 19.3992 30.5035 24.9518L30.5374 25.1722L30.6794 25.0003C30.9496 24.6731 31.2372 24.347 31.5426 24.0458C33.7699 21.8481 36.7311 20.6345 39.8766 20.6345C43.707 20.6345 47.1028 22.4517 49.2567 25.2533L49.4034 25.444L49.4351 25.2055C49.7716 22.6823 50.9155 20.3465 52.7754 18.5112C55.0027 16.3135 57.9639 15.1 61.1094 15.1C67.6086 15.1 72.9 20.3171 72.9 26.7266C72.9 29.8291 71.6707 32.7505 69.4434 34.9481C67.2161 37.1459 64.261 38.3594 61.1156 38.3594C57.2852 38.3594 53.8893 36.5422 51.7354 33.7467L51.5883 33.5558L51.557 33.7947C51.2267 36.3176 50.0768 38.6534 48.2168 40.4888C45.9895 42.6865 43.0344 43.9 39.8889 43.9C34.0021 43.9 29.12 39.619 28.2514 34.048L28.2171 33.8282L28.0755 33.9997C27.8053 34.3269 27.5176 34.653 27.2123 34.9542C24.985 37.152 22.0299 38.3655 18.8845 38.3655C12.3853 38.3655 7.10002 33.1545 7.10002 26.7449ZM54.4245 20.1344L54.4243 20.1346C52.6345 21.9007 51.6487 24.2521 51.6487 26.7449V26.745C51.6549 31.9036 55.903 36.0935 61.1279 36.0935C63.6533 36.0935 66.0295 35.115 67.8191 33.3492C69.615 31.5771 70.6009 29.2318 70.6009 26.7388V26.7387C70.5947 21.58 66.3404 17.3902 61.1217 17.3902C58.5963 17.3902 56.2202 18.3687 54.4245 20.1344ZM33.1914 25.6692L33.0187 25.8403H33.0285C31.3459 27.5857 30.4221 29.8663 30.4221 32.2794C30.4221 37.4382 34.6765 41.628 39.8951 41.628C42.4205 41.628 44.7967 40.6496 46.5863 38.8837C48.3823 37.1116 49.3681 34.7663 49.3681 32.2734V32.2732C49.3619 27.1146 45.1076 22.9248 39.8889 22.9248C37.3638 22.9248 34.9813 23.897 33.1914 25.6692ZM9.40526 26.7449L9.40526 26.745C9.4115 31.9037 13.6658 36.0935 18.8845 36.0935C21.4098 36.0935 23.786 35.115 25.5757 33.3492C27.3716 31.5771 28.3575 29.2318 28.3575 26.7388C28.3575 21.58 24.1031 17.3902 18.8845 17.3902H18.8783C16.353 17.3902 13.9706 18.3687 12.1809 20.1346C10.3911 21.9007 9.40526 24.2521 9.40526 26.7449Z" fill="#F8F8F8" stroke="#88A795" stroke-width="0.2"/>
</g>
<defs>
<clipPath id="clip0_1067_29603">
<rect width="72" height="48" fill="white" transform="translate(3 15)"/>
</clipPath>
</defs>
</svg>
