<svg width="18" height="18" viewBox="0 0 18 18" fill="none" xmlns="http://www.w3.org/2000/svg">
<mask id="mask0_572_2821" style="mask-type:alpha" maskUnits="userSpaceOnUse" x="0" y="0" width="18" height="18">
<rect width="18" height="18" fill="#D9D9D9"/>
</mask>
<g mask="url(#mask0_572_2821)">
<path d="M2.78594 3.07402C2.72969 3.11621 2.6875 4.00215 2.6875 5.04277V6.91309H3.50313H4.31875L4.4875 6.26621C4.62813 5.7459 4.74063 5.59121 5.14844 5.42246C5.41563 5.30996 5.95 5.22559 6.34375 5.22559C6.7375 5.22559 7.27188 5.30996 7.53906 5.42246C7.94688 5.59121 8.05938 5.7459 8.2 6.26621C8.36875 6.88496 8.39688 6.91309 8.875 6.91309C9.35313 6.91309 9.38125 6.88496 9.55 6.26621C9.69063 5.7459 9.80313 5.59121 10.2109 5.42246C10.8297 5.16934 11.9828 5.16934 12.6016 5.42246C13.0094 5.59121 13.1219 5.7459 13.2625 6.26621L13.4313 6.91309H14.2469H15.0766L15.0344 4.97246L14.9922 3.0459L8.93125 3.00371C5.59844 2.98965 2.82812 3.01777 2.78594 3.07402Z" fill="currentColor"/>
<path d="M1.47812 8.51621L1 8.99434L1.02812 11.5818L1.07031 14.1553H1.5625C2.02656 14.1553 2.05469 14.1271 2.09687 13.635L2.13906 13.1006H8.875H15.6109L15.6531 13.6209C15.6953 14.1271 15.7234 14.1553 16.1875 14.1553H16.6797L16.7219 11.5818L16.75 8.99434L16.2719 8.51621L15.7937 8.03809H8.875H1.95625L1.47812 8.51621Z" fill="currentColor"/>
</g>
</svg>
