<svg width="18" height="18" viewBox="0 0 18 18" fill="none" xmlns="http://www.w3.org/2000/svg">
<mask id="mask0_572_2828" style="mask-type:alpha" maskUnits="userSpaceOnUse" x="0" y="0" width="18" height="18">
<rect width="18" height="18" fill="#D9D9D9"/>
</mask>
<g mask="url(#mask0_572_2828)">
<path fill-rule="evenodd" clip-rule="evenodd" d="M14.9837 15.6255H3.81619C2.81477 15.6255 2 14.8172 2 13.824V2.80153C2 1.80818 2.81477 1 3.81619 1H14.9839C15.9853 1 16.8001 1.80825 16.8001 2.80146V13.824C16.7998 14.8172 15.9852 15.6255 14.9837 15.6255ZM6.30084 17.0001H4.9153C4.70645 17.0001 4.5373 16.8323 4.5373 16.6252V16.0006H6.6789V16.6252C6.6789 16.8323 6.50976 17.0001 6.30084 17.0001ZM13.8845 17.0001H12.499C12.2901 17.0001 12.1209 16.8323 12.1209 16.6252V16.0006H14.2627V16.6252C14.2626 16.8323 14.0934 17.0001 13.8845 17.0001ZM6.92784 8.23369C7.28027 8.14904 7.54294 7.83347 7.543 7.45823C7.54313 7.01851 7.18206 6.66045 6.73885 6.66045C6.29563 6.66045 5.93462 7.01844 5.93462 7.45823C5.93462 7.83347 6.19729 8.14904 6.54985 8.23369V9.77748C6.54985 9.88124 6.63432 9.9651 6.73891 9.9651C6.8435 9.9651 6.92798 9.88117 6.92798 9.77748L6.92784 8.23369ZM6.73878 7.03542C6.50357 7.03542 6.31243 7.22504 6.31243 7.45836C6.31243 7.69169 6.5009 7.8784 6.7337 7.88111L6.73878 7.88099L6.74379 7.88111C6.97653 7.8784 7.16494 7.68995 7.16494 7.45836C7.16494 7.22678 6.97386 7.03542 6.73878 7.03542ZM10.9395 9.08209V10.0255C11.7465 9.93857 12.3892 9.30095 12.477 8.50032H11.526C11.4558 8.78659 11.228 9.01243 10.9395 9.08209ZM11.5259 8.12529H12.477C12.3894 7.32459 11.7465 6.68705 10.9395 6.60002V7.54352C11.2279 7.61331 11.4555 7.83915 11.5259 8.12529ZM10.5613 7.54359V6.60002C9.75431 6.68705 9.11162 7.32472 9.02389 8.12529H9.97481C10.0452 7.83915 10.2729 7.61338 10.5613 7.54359ZM9.97481 8.50032H9.02389C9.11162 9.30089 9.75444 9.93857 10.5613 10.0255V9.08209C10.2729 9.0123 10.0452 8.78653 9.97481 8.50032ZM10.7505 7.8959C10.5202 7.8959 10.3329 8.08016 10.3302 8.30787V8.31781C10.3329 8.54552 10.5202 8.72965 10.7505 8.72965C10.9807 8.72965 11.1707 8.54287 11.1707 8.3129C11.1707 8.08293 10.9822 7.8959 10.7505 7.8959ZM10.7505 10.4108C11.9139 10.4108 12.8612 9.47359 12.8652 8.3202L12.8654 8.3129L12.8652 8.30561C12.8612 7.15221 11.914 6.21484 10.7505 6.21484C9.58692 6.21484 8.63548 7.15615 8.63548 8.3129C8.63548 9.46965 9.58425 10.4108 10.7505 10.4108ZM13.4227 13.422C14.0553 13.422 14.5703 12.9111 14.5703 12.2834V10.0173H15.0307C15.1353 10.0173 15.2198 9.9334 15.2198 9.82971V6.79557C15.2198 6.69189 15.1353 6.60809 15.0307 6.60809H14.5703V4.34197C14.5703 3.7143 14.0553 3.20343 13.4224 3.20343H5.37719C4.74446 3.20343 4.22946 3.7143 4.22946 4.34197V12.2834C4.22946 12.9111 4.74446 13.422 5.37719 13.422H13.4227ZM14.388 9.64242H14.8417V6.98313H13.9961V9.64229H14.3813L14.388 9.64242ZM5.37719 3.57853C4.95272 3.57853 4.60753 3.92096 4.60753 4.34204V12.2834C4.60753 12.7045 4.95272 13.0469 5.37719 13.0469H13.4224C13.8469 13.0469 14.1921 12.7045 14.1921 12.2834V10.0173H13.802L13.7973 10.0171L13.7925 10.0168L13.7877 10.0164L13.7829 10.0158L13.7783 10.0151L13.7735 10.0144L13.7689 10.0135L13.7643 10.0126L13.7597 10.0114C13.6781 9.99067 13.6179 9.91726 13.6179 9.82978V6.79551C13.6179 6.70803 13.6781 6.63456 13.7597 6.6139L13.7642 6.6128L13.7688 6.61177L13.7734 6.61086L13.778 6.61009L13.7828 6.60944L13.7875 6.60893L13.7924 6.60847L13.7972 6.60822L13.802 6.60802H13.8069H14.1922V4.34191C14.1922 3.92084 13.8471 3.5784 13.4226 3.5784L5.37719 3.57853Z" fill="currentColor"/>
</g>
</svg>
