<svg width="31" height="30" viewBox="0 0 31 30" fill="none" xmlns="http://www.w3.org/2000/svg">
<rect width="31" height="30" rx="6" fill="#F5F5F7"/>
<path d="M15.4728 10.0172C18.1371 10.0172 20.3361 12.2162 20.3361 14.8804C20.3361 17.587 18.1371 19.7437 15.4728 19.7437C12.7663 19.7437 10.6095 17.587 10.6095 14.8804C10.6095 12.2162 12.7663 10.0172 15.4728 10.0172ZM15.4728 18.0521C17.2067 18.0521 18.6022 16.6566 18.6022 14.8804C18.6022 13.1466 17.2067 11.751 15.4728 11.751C13.6967 11.751 12.3011 13.1466 12.3011 14.8804C12.3011 16.6566 13.739 18.0521 15.4728 18.0521ZM21.6471 9.84799C21.6471 10.4823 21.1396 10.9898 20.5053 10.9898C19.8709 10.9898 19.3635 10.4823 19.3635 9.84799C19.3635 9.21365 19.8709 8.70618 20.5053 8.70618C21.1396 8.70618 21.6471 9.21365 21.6471 9.84799ZM24.8611 10.9898C24.9457 12.5545 24.9457 17.2486 24.8611 18.8133C24.7765 20.3358 24.4382 21.6467 23.3387 22.7886C22.2391 23.8881 20.8859 24.2264 19.3635 24.311C17.7987 24.3956 13.1046 24.3956 11.5399 24.311C10.0175 24.2264 8.70652 23.8881 7.56471 22.7886C6.46518 21.6467 6.12687 20.3358 6.04229 18.8133C5.95771 17.2486 5.95771 12.5545 6.04229 10.9898C6.12687 9.46739 6.46518 8.11413 7.56471 7.0146C8.70652 5.91508 10.0175 5.57676 11.5399 5.49219C13.1046 5.40761 17.7987 5.40761 19.3635 5.49219C20.8859 5.57676 22.2391 5.91508 23.3387 7.0146C24.4382 8.11413 24.7765 9.46739 24.8611 10.9898ZM22.8312 20.4626C23.3387 19.2362 23.2118 16.276 23.2118 14.8804C23.2118 13.5272 23.3387 10.5669 22.8312 9.29823C22.4929 8.49473 21.8585 7.8181 21.055 7.52208C19.7863 7.0146 16.8261 7.14147 15.4728 7.14147C14.0773 7.14147 11.117 7.0146 9.89063 7.52208C9.04484 7.86039 8.4105 8.49473 8.07218 9.29823C7.56471 10.5669 7.69158 13.5272 7.69158 14.8804C7.69158 16.276 7.56471 19.2362 8.07218 20.4626C8.4105 21.3084 9.04484 21.9428 9.89063 22.2811C11.117 22.7886 14.0773 22.6617 15.4728 22.6617C16.8261 22.6617 19.7863 22.7886 21.055 22.2811C21.8585 21.9428 22.5352 21.3084 22.8312 20.4626Z" fill="#171717"/>
</svg>
