<svg width="32" height="31" viewBox="0 0 32 31" fill="none" xmlns="http://www.w3.org/2000/svg">
<rect width="32" height="31" rx="6" fill="#303030"/>
<path d="M15.7011 10.7043C18.4295 10.7043 20.6816 12.9564 20.6816 15.6848C20.6816 18.4565 18.4295 20.6653 15.7011 20.6653C12.9293 20.6653 10.7206 18.4565 10.7206 15.6848C10.7206 12.9564 12.9293 10.7043 15.7011 10.7043ZM15.7011 18.9329C17.4767 18.9329 18.9059 17.5037 18.9059 15.6848C18.9059 13.9091 17.4767 12.48 15.7011 12.48C13.8821 12.48 12.453 13.9091 12.453 15.6848C12.453 17.5037 13.9254 18.9329 15.7011 18.9329ZM22.0241 10.5311C22.0241 11.1807 21.5044 11.7004 20.8548 11.7004C20.2052 11.7004 19.6855 11.1807 19.6855 10.5311C19.6855 9.88145 20.2052 9.36175 20.8548 9.36175C21.5044 9.36175 22.0241 9.88145 22.0241 10.5311ZM25.3156 11.7004C25.4022 13.3028 25.4022 18.1101 25.3156 19.7125C25.2289 21.2716 24.8825 22.6141 23.7565 23.7835C22.6304 24.9095 21.2446 25.2559 19.6855 25.3426C18.0831 25.4292 13.2758 25.4292 11.6734 25.3426C10.1143 25.2559 8.77174 24.9095 7.60241 23.7835C6.47639 22.6141 6.12993 21.2716 6.04331 19.7125C5.95669 18.1101 5.95669 13.3028 6.04331 11.7004C6.12993 10.1413 6.47639 8.75543 7.60241 7.62942C8.77174 6.5034 10.1143 6.15693 11.6734 6.07031C13.2758 5.98369 18.0831 5.98369 19.6855 6.07031C21.2446 6.15693 22.6304 6.5034 23.7565 7.62942C24.8825 8.75543 25.2289 10.1413 25.3156 11.7004ZM23.2368 21.4015C23.7565 20.1456 23.6265 17.114 23.6265 15.6848C23.6265 14.2989 23.7565 11.2673 23.2368 9.96807C22.8903 9.14521 22.2407 8.45228 21.4178 8.14912C20.1185 7.62942 17.087 7.75934 15.7011 7.75934C14.2719 7.75934 11.2403 7.62942 9.98438 8.14912C9.11821 8.49558 8.46858 9.14521 8.12211 9.96807C7.60241 11.2673 7.73234 14.2989 7.73234 15.6848C7.73234 17.114 7.60241 20.1456 8.12211 21.4015C8.46858 22.2677 9.11821 22.9173 9.98438 23.2638C11.2403 23.7835 14.2719 23.6535 15.7011 23.6535C17.087 23.6535 20.1185 23.7835 21.4178 23.2638C22.2407 22.9173 22.9336 22.2677 23.2368 21.4015Z" fill="white"/>
</svg>
