<svg width="118" height="30" viewBox="0 0 118 30" fill="none" xmlns="http://www.w3.org/2000/svg">
<path d="M48.0569 14.0303C47.683 14.0303 47.4101 13.9798 47.2384 13.8787C47.0666 13.7777 46.9807 13.6362 46.9807 13.4543V3.996C46.9807 3.5918 47.2232 3.3897 47.7082 3.3897H52.6496C53.0033 3.3897 53.1801 3.66759 53.1801 4.22336V4.85998C53.1801 5.42586 53.0033 5.70881 52.6496 5.70881H49.5726V7.95213H52.4223C52.7759 7.95213 52.9528 8.23002 52.9528 8.78579V9.42241C52.9528 9.97819 52.7759 10.2561 52.4223 10.2561H49.5726V13.4543C49.5726 13.6362 49.4867 13.7777 49.3149 13.8787C49.1533 13.9798 48.8804 14.0303 48.4964 14.0303H48.0569ZM59.2876 14.1213C57.6708 14.1213 56.4329 13.6615 55.574 12.7419C54.7251 11.8123 54.3007 10.4632 54.3007 8.69485C54.3007 6.92646 54.7251 5.58249 55.574 4.66293C56.4329 3.73327 57.6708 3.26844 59.2876 3.26844C60.9044 3.26844 62.1372 3.73327 62.986 4.66293C63.8348 5.58249 64.2593 6.92646 64.2593 8.69485C64.2593 10.4632 63.8348 11.8123 62.986 12.7419C62.1372 13.6615 60.9044 14.1213 59.2876 14.1213ZM59.2876 11.8022C60.0555 11.8022 60.6265 11.5445 61.0004 11.0291C61.3844 10.5138 61.5764 9.73567 61.5764 8.69485C61.5764 7.64392 61.3844 6.86583 61.0004 6.36058C60.6265 5.84522 60.0555 5.58755 59.2876 5.58755C58.5196 5.58755 57.9436 5.84522 57.5596 6.36058C57.1756 6.86583 56.9836 7.64392 56.9836 8.69485C56.9836 9.73567 57.1756 10.5138 57.5596 11.0291C57.9436 11.5445 58.5196 11.8022 59.2876 11.8022ZM66.767 14.0303C66.3931 14.0303 66.1203 13.9798 65.9485 13.8787C65.7767 13.7777 65.6908 13.6362 65.6908 13.4543V3.996C65.6908 3.5918 65.9333 3.3897 66.4184 3.3897H69.5408C70.8343 3.3897 71.7892 3.65243 72.4056 4.17789C73.0321 4.70335 73.3454 5.47134 73.3454 6.48184C73.3454 6.92646 73.2747 7.32056 73.1332 7.66413C73.0018 8.00771 72.8048 8.29065 72.542 8.51296C72.2894 8.73527 71.9711 8.8919 71.5871 8.98284V9.04347C71.8296 9.11421 72.0418 9.26578 72.2237 9.4982C72.4157 9.73062 72.5774 10.0439 72.7088 10.438L73.694 13.136C73.7344 13.2371 73.7597 13.328 73.7698 13.4089C73.79 13.4796 73.8001 13.5453 73.8001 13.6059C73.8001 13.7777 73.7243 13.8939 73.5728 13.9545C73.4212 14.0051 73.1635 14.0303 72.7997 14.0303H72.2692C71.966 14.0303 71.7185 14 71.5265 13.9394C71.3446 13.8787 71.2132 13.7373 71.1324 13.515L70.2532 11.0897C70.1724 10.8674 70.0815 10.6956 69.9804 10.5744C69.8895 10.443 69.7682 10.3521 69.6166 10.3016C69.465 10.2409 69.2629 10.2106 69.0103 10.2106H68.2828V13.4543C68.2828 13.6362 68.1969 13.7777 68.0251 13.8787C67.8634 13.9798 67.5906 14.0303 67.2066 14.0303H66.767ZM68.2828 8.04307H69.5863C69.9804 8.04307 70.2633 7.95213 70.4351 7.77024C70.617 7.58835 70.708 7.29025 70.708 6.87594C70.708 6.46163 70.617 6.16353 70.4351 5.98164C70.2633 5.79975 69.9804 5.70881 69.5863 5.70881H68.2828V8.04307ZM77.2498 14.0303C76.9466 14.0303 76.7091 13.9899 76.5374 13.9091C76.3757 13.8181 76.2746 13.6716 76.2342 13.4695L73.9757 4.25368C73.9555 4.16273 73.9353 4.07684 73.9151 3.996C73.8848 3.91516 73.8696 3.83432 73.8696 3.75348C73.8696 3.63222 73.9303 3.53622 74.0515 3.46548C74.1728 3.39475 74.385 3.35938 74.6881 3.35938H75.4915C75.7542 3.35938 75.9715 3.38464 76.1433 3.43517C76.3252 3.4857 76.4363 3.62717 76.4767 3.85958L77.8561 11.4081H77.9167L79.4325 3.8899C79.483 3.65748 79.5941 3.51096 79.7659 3.45033C79.9377 3.3897 80.1853 3.35938 80.5086 3.35938H81.2817C81.5848 3.35938 81.8324 3.39475 82.0244 3.46548C82.2265 3.52612 82.3478 3.67264 82.3882 3.90506L83.8585 11.4081H83.9191L85.3288 3.85958C85.3793 3.64738 85.4753 3.51096 85.6167 3.45033C85.7683 3.3897 85.9755 3.35938 86.2382 3.35938H86.9051C87.2285 3.35938 87.4559 3.39475 87.5872 3.46548C87.7186 3.53622 87.7843 3.63222 87.7843 3.75348C87.7843 3.83432 87.7742 3.91516 87.754 3.996C87.7338 4.07684 87.7034 4.16273 87.663 4.25368L85.4197 13.4695C85.3793 13.6716 85.2732 13.8181 85.1014 13.9091C84.9397 13.9899 84.7073 14.0303 84.4041 14.0303H83.2522C82.9288 14.0303 82.6863 13.9899 82.5246 13.9091C82.3629 13.8181 82.2568 13.6665 82.2063 13.4543L80.8573 6.8911H80.7966L79.4476 13.4543C79.4072 13.6665 79.3011 13.8181 79.1293 13.9091C78.9676 13.9899 78.7251 14.0303 78.4017 14.0303H77.2498ZM88.0705 14.0303C87.7471 14.0303 87.5198 13.9949 87.3884 13.9242C87.257 13.8535 87.1914 13.7575 87.1914 13.6362C87.1914 13.5554 87.2065 13.4745 87.2368 13.3937C87.257 13.3129 87.2773 13.227 87.2975 13.136L90.2987 3.90506C90.3694 3.68274 90.4856 3.53622 90.6473 3.46548C90.809 3.39475 91.0313 3.35938 91.3142 3.35938H92.5268C92.8199 3.35938 93.0422 3.39475 93.1938 3.46548C93.3554 3.53622 93.4716 3.68274 93.5424 3.90506L96.5436 13.136C96.584 13.227 96.6093 13.3129 96.6194 13.3937C96.6396 13.4745 96.6497 13.5554 96.6497 13.6362C96.6497 13.7575 96.5891 13.8535 96.4678 13.9242C96.3566 13.9949 96.1495 14.0303 95.8463 14.0303H94.9672C94.7045 14.0303 94.4923 14 94.3306 13.9394C94.1689 13.8787 94.0577 13.7524 93.9971 13.5604L92.163 7.16393C92.1226 7.00225 92.0822 6.84057 92.0418 6.67889C92.0014 6.51721 91.966 6.35553 91.9357 6.19385H91.8751C91.8447 6.35553 91.8094 6.51721 91.7689 6.67889C91.7285 6.84057 91.6881 7.00225 91.6477 7.16393L89.7681 13.5604C89.7176 13.7524 89.6216 13.8787 89.4802 13.9394C89.3488 14 89.1467 14.0303 88.8739 14.0303H88.0705ZM89.3134 11.984V9.8923H94.4973V11.984H89.3134ZM98.5032 14.0303C98.1293 14.0303 97.8564 13.9798 97.6847 13.8787C97.5129 13.7777 97.427 13.6362 97.427 13.4543V3.996C97.427 3.5918 97.6695 3.3897 98.1545 3.3897H101.277C102.57 3.3897 103.525 3.65243 104.142 4.17789C104.768 4.70335 105.082 5.47134 105.082 6.48184C105.082 6.92646 105.011 7.32056 104.869 7.66413C104.738 8.00771 104.541 8.29065 104.278 8.51296C104.026 8.73527 103.707 8.8919 103.323 8.98284V9.04347C103.566 9.11421 103.778 9.26578 103.96 9.4982C104.152 9.73062 104.314 10.0439 104.445 10.438L105.43 13.136C105.471 13.2371 105.496 13.328 105.506 13.4089C105.526 13.4796 105.536 13.5453 105.536 13.6059C105.536 13.7777 105.461 13.8939 105.309 13.9545C105.157 14.0051 104.9 14.0303 104.536 14.0303H104.005C103.702 14.0303 103.455 14 103.263 13.9394C103.081 13.8787 102.949 13.7373 102.869 13.515L101.989 11.0897C101.909 10.8674 101.818 10.6956 101.717 10.5744C101.626 10.443 101.504 10.3521 101.353 10.3016C101.201 10.2409 100.999 10.2106 100.746 10.2106H100.019V13.4543C100.019 13.6362 99.933 13.7777 99.7613 13.8787C99.5996 13.9798 99.3267 14.0303 98.9427 14.0303H98.5032ZM100.019 8.04307H101.322C101.717 8.04307 102 7.95213 102.171 7.77024C102.353 7.58835 102.444 7.29025 102.444 6.87594C102.444 6.46163 102.353 6.16353 102.171 5.98164C102 5.79975 101.717 5.70881 101.322 5.70881H100.019V8.04307ZM107.406 14C106.921 14 106.678 13.7979 106.678 13.3937V3.996C106.678 3.5918 106.921 3.3897 107.406 3.3897H110.816C112.433 3.3897 113.666 3.83937 114.515 4.73872C115.364 5.63807 115.788 6.95678 115.788 8.69485C115.788 10.4228 115.364 11.7415 114.515 12.651C113.666 13.5503 112.433 14 110.816 14H107.406ZM109.27 11.6809H110.816C111.584 11.6809 112.155 11.4333 112.529 10.9382C112.913 10.443 113.105 9.69525 113.105 8.69485C113.105 7.69445 112.913 6.94667 112.529 6.45153C112.155 5.95638 111.584 5.70881 110.816 5.70881H109.27V11.6809Z" fill="white"/>
<path d="M49.4348 26.5438C49.12 26.5438 48.8903 26.5012 48.7457 26.4162C48.601 26.3311 48.5287 26.212 48.5287 26.0588V19.5375H46.6655C46.3677 19.5375 46.2188 19.2993 46.2188 18.8228V18.2868C46.2188 17.8189 46.3677 17.5849 46.6655 17.5849H52.5742C52.872 17.5849 53.0209 17.8189 53.0209 18.2868V18.8228C53.0209 19.2993 52.872 19.5375 52.5742 19.5375H50.711V26.0588C50.711 26.212 50.6387 26.3311 50.494 26.4162C50.3579 26.5012 50.1282 26.5438 49.8049 26.5438H49.4348ZM54.7543 26.5438C54.4395 26.5438 54.2098 26.5012 54.0652 26.4162C53.9205 26.3311 53.8482 26.212 53.8482 26.0588V18.0954C53.8482 17.7551 54.0524 17.5849 54.4608 17.5849H57.0898C58.1788 17.5849 58.9828 17.8061 59.5018 18.2485C60.0293 18.6909 60.293 19.3375 60.293 20.1883C60.293 20.5627 60.2334 20.8945 60.1143 21.1838C60.0037 21.473 59.8378 21.7113 59.6166 21.8984C59.4039 22.0856 59.1359 22.2175 58.8126 22.2941V22.3451C59.0168 22.4047 59.1955 22.5323 59.3486 22.728C59.5103 22.9236 59.6464 23.1874 59.757 23.5192L60.5865 25.7908C60.6206 25.8759 60.6418 25.9525 60.6503 26.0205C60.6674 26.0801 60.6759 26.1354 60.6759 26.1864C60.6759 26.3311 60.6121 26.4289 60.4844 26.48C60.3568 26.5225 60.1399 26.5438 59.8336 26.5438H59.3869C59.1317 26.5438 58.9232 26.5182 58.7616 26.4672C58.6084 26.4162 58.4978 26.297 58.4298 26.1099L57.6896 24.068C57.6215 23.8808 57.5449 23.7361 57.4599 23.6341C57.3833 23.5235 57.2812 23.4469 57.1536 23.4043C57.026 23.3533 56.8558 23.3278 56.6431 23.3278H56.0305V26.0588C56.0305 26.212 55.9582 26.3311 55.8136 26.4162C55.6774 26.5012 55.4477 26.5438 55.1244 26.5438H54.7543ZM56.0305 21.5028H57.128C57.4599 21.5028 57.6981 21.4262 57.8427 21.2731C57.9959 21.12 58.0724 20.869 58.0724 20.5201C58.0724 20.1713 57.9959 19.9203 57.8427 19.7672C57.6981 19.614 57.4599 19.5375 57.128 19.5375H56.0305V21.5028ZM61.5864 26.5438C61.3142 26.5438 61.1228 26.514 61.0122 26.4544C60.9016 26.3949 60.8463 26.3141 60.8463 26.212C60.8463 26.1439 60.859 26.0758 60.8845 26.0078C60.9016 25.9397 60.9186 25.8674 60.9356 25.7908L63.4624 18.0188C63.522 17.8316 63.6198 17.7083 63.756 17.6487C63.8921 17.5892 64.0793 17.5594 64.3175 17.5594H65.3385C65.5852 17.5594 65.7724 17.5892 65.9 17.6487C66.0361 17.7083 66.1339 17.8316 66.1935 18.0188L68.7204 25.7908C68.7544 25.8674 68.7757 25.9397 68.7842 26.0078C68.8012 26.0758 68.8097 26.1439 68.8097 26.212C68.8097 26.3141 68.7586 26.3949 68.6566 26.4544C68.563 26.514 68.3886 26.5438 68.1333 26.5438H67.3931C67.1719 26.5438 66.9932 26.5182 66.8571 26.4672C66.721 26.4162 66.6274 26.3098 66.5764 26.1482L65.0322 20.7626C64.9981 20.6265 64.9641 20.4904 64.9301 20.3542C64.896 20.2181 64.8663 20.082 64.8407 19.9459H64.7897C64.7642 20.082 64.7344 20.2181 64.7004 20.3542C64.6663 20.4904 64.6323 20.6265 64.5983 20.7626L63.0158 26.1482C62.9732 26.3098 62.8924 26.4162 62.7733 26.4672C62.6627 26.5182 62.4925 26.5438 62.2628 26.5438H61.5864ZM62.6329 24.8209V23.0598H66.9975V24.8209H62.6329ZM70.3702 26.5438C70.0554 26.5438 69.8257 26.5012 69.6811 26.4162C69.5365 26.3311 69.4641 26.212 69.4641 26.0588V18.0443C69.4641 17.8827 69.5365 17.7636 69.6811 17.687C69.8257 17.6019 70.0554 17.5594 70.3702 17.5594H70.7276C70.9233 17.5594 71.0807 17.5721 71.1998 17.5977C71.3274 17.6232 71.438 17.67 71.5316 17.738C71.6252 17.7976 71.7187 17.8997 71.8123 18.0443L74.4285 21.7708C74.5732 21.9665 74.7135 22.1834 74.8497 22.4217C74.9858 22.6514 75.0922 22.8428 75.1687 22.996L75.2198 22.9832C75.1942 22.8215 75.173 22.6216 75.156 22.3834C75.1475 22.1452 75.1432 21.9112 75.1432 21.6815V18.0443C75.1432 17.8912 75.2155 17.7721 75.3602 17.687C75.5048 17.6019 75.7345 17.5594 76.0493 17.5594H76.279C76.6023 17.5594 76.832 17.6019 76.9682 17.687C77.1128 17.7721 77.1851 17.8912 77.1851 18.0443V26.0588C77.1851 26.212 77.1128 26.3311 76.9682 26.4162C76.832 26.5012 76.6023 26.5438 76.279 26.5438H75.9217C75.743 26.5438 75.5899 26.5353 75.4622 26.5182C75.3431 26.4927 75.2368 26.4502 75.1432 26.3906C75.0581 26.3226 74.973 26.2247 74.888 26.0971L72.2207 22.3196C72.0761 22.1069 71.9357 21.8857 71.7996 21.656C71.6634 21.4262 71.5571 21.2348 71.4805 21.0817L71.4295 21.0944C71.455 21.2561 71.472 21.456 71.4805 21.6942C71.4975 21.9325 71.5061 22.1707 71.5061 22.4089V26.0588C71.5061 26.212 71.4337 26.3311 71.2891 26.4162C71.153 26.5012 70.9233 26.5438 70.6 26.5438H70.3702ZM81.1509 26.6203C80.7085 26.6203 80.3086 26.5863 79.9513 26.5182C79.5939 26.4587 79.2876 26.3779 79.0324 26.2758C78.7857 26.1737 78.5857 26.0758 78.4326 25.9822C78.3135 25.9057 78.2156 25.8334 78.1391 25.7653C78.0625 25.6887 78.0242 25.5994 78.0242 25.4973C78.0242 25.3952 78.037 25.2718 78.0625 25.1272C78.0965 24.9741 78.1391 24.8209 78.1901 24.6678C78.2497 24.5146 78.3135 24.387 78.3815 24.2849C78.4496 24.1828 78.5219 24.1318 78.5985 24.1318C78.7006 24.1318 78.8707 24.1871 79.109 24.2977C79.3557 24.3998 79.645 24.5061 79.9768 24.6167C80.3171 24.7188 80.6702 24.7699 81.036 24.7699C81.2487 24.7699 81.4231 24.7486 81.5593 24.7061C81.7039 24.6635 81.8102 24.5912 81.8783 24.4891C81.9549 24.3785 81.9932 24.2381 81.9932 24.068C81.9932 23.9233 81.9506 23.8 81.8655 23.6979C81.7805 23.5958 81.6571 23.4979 81.4954 23.4043C81.3423 23.3022 81.1424 23.2001 80.8956 23.0981C80.6574 22.996 80.3767 22.8726 80.0533 22.728C79.8151 22.6174 79.5854 22.494 79.3642 22.3579C79.1515 22.2132 78.9558 22.0431 78.7772 21.8474C78.5985 21.6517 78.4581 21.4135 78.356 21.1327C78.2539 20.8434 78.2029 20.5074 78.2029 20.1245C78.2029 19.6481 78.2922 19.244 78.4709 18.9121C78.6495 18.5803 78.8878 18.3123 79.1855 18.1081C79.4918 17.8954 79.8321 17.738 80.2065 17.6359C80.5808 17.5339 80.9594 17.4828 81.3423 17.4828C81.572 17.4828 81.806 17.4998 82.0442 17.5339C82.2824 17.5679 82.5079 17.6147 82.7206 17.6742C82.9418 17.7338 83.129 17.8061 83.2821 17.8912C83.4268 17.9593 83.5416 18.0316 83.6267 18.1081C83.7203 18.1762 83.7671 18.257 83.7671 18.3506C83.7671 18.4357 83.7501 18.5548 83.716 18.708C83.6905 18.8526 83.648 19.0015 83.5884 19.1546C83.5374 19.3078 83.4778 19.4396 83.4097 19.5502C83.3417 19.6523 83.2651 19.7034 83.18 19.7034C83.0864 19.7034 82.9461 19.6736 82.7589 19.614C82.5802 19.546 82.3675 19.4822 82.1208 19.4226C81.8826 19.3546 81.6103 19.3205 81.304 19.3205C81.0828 19.3205 80.8999 19.346 80.7553 19.3971C80.6106 19.4396 80.5043 19.5077 80.4362 19.6013C80.3767 19.6864 80.3469 19.8055 80.3469 19.9586C80.3469 20.1458 80.4107 20.3032 80.5383 20.4308C80.6659 20.5499 80.8361 20.652 81.0488 20.7371C81.2615 20.8222 81.4827 20.92 81.7124 21.0306C81.9932 21.1412 82.2782 21.2688 82.5674 21.4135C82.8567 21.5496 83.1205 21.7198 83.3587 21.924C83.6054 22.1281 83.8011 22.3876 83.9457 22.7024C84.0989 23.0087 84.1755 23.3916 84.1755 23.851C84.1755 24.3615 84.0861 24.7954 83.9075 25.1527C83.7373 25.5015 83.5033 25.7866 83.2055 26.0078C82.9163 26.2205 82.593 26.3779 82.2356 26.48C81.8868 26.5736 81.5252 26.6203 81.1509 26.6203ZM85.9238 26.5438C85.609 26.5438 85.3793 26.5012 85.2347 26.4162C85.0901 26.3311 85.0177 26.212 85.0177 26.0588V18.0954C85.0177 17.7551 85.2219 17.5849 85.6303 17.5849H88.2976C89.3525 17.5849 90.1438 17.8316 90.6713 18.3251C91.1988 18.81 91.4625 19.5375 91.4625 20.5074C91.4625 21.4858 91.1988 22.2217 90.6713 22.7152C90.1438 23.2087 89.3525 23.4554 88.2976 23.4554H87.2V26.0588C87.2 26.212 87.1277 26.3311 86.9831 26.4162C86.8469 26.5012 86.6172 26.5438 86.2939 26.5438H85.9238ZM87.2 21.5028H88.3103C88.6336 21.5028 88.8676 21.4262 89.0122 21.2731C89.1654 21.12 89.2419 20.869 89.2419 20.5201C89.2419 20.1713 89.1654 19.9203 89.0122 19.7672C88.8676 19.614 88.6336 19.5375 88.3103 19.5375H87.2V21.5028ZM96.2395 26.6203C94.8782 26.6203 93.836 26.2332 93.1128 25.459C92.3981 24.6763 92.0408 23.5405 92.0408 22.0516C92.0408 20.5627 92.3981 19.4311 93.1128 18.6569C93.836 17.8742 94.8782 17.4828 96.2395 17.4828C97.6007 17.4828 98.6387 17.8742 99.3534 18.6569C100.068 19.4311 100.425 20.5627 100.425 22.0516C100.425 23.5405 100.068 24.6763 99.3534 25.459C98.6387 26.2332 97.6007 26.6203 96.2395 26.6203ZM96.2395 24.6678C96.8861 24.6678 97.3668 24.4508 97.6816 24.0169C98.0049 23.583 98.1665 22.9279 98.1665 22.0516C98.1665 21.1667 98.0049 20.5116 97.6816 20.0862C97.3668 19.6523 96.8861 19.4354 96.2395 19.4354C95.5929 19.4354 95.1079 19.6523 94.7846 20.0862C94.4613 20.5116 94.2996 21.1667 94.2996 22.0516C94.2996 22.9279 94.4613 23.583 94.7846 24.0169C95.1079 24.4508 95.5929 24.6678 96.2395 24.6678ZM102.537 26.5438C102.222 26.5438 101.992 26.5012 101.848 26.4162C101.703 26.3311 101.631 26.212 101.631 26.0588V18.0954C101.631 17.7551 101.835 17.5849 102.243 17.5849H104.872C105.961 17.5849 106.765 17.8061 107.284 18.2485C107.812 18.6909 108.075 19.3375 108.075 20.1883C108.075 20.5627 108.016 20.8945 107.897 21.1838C107.786 21.473 107.62 21.7113 107.399 21.8984C107.186 22.0856 106.918 22.2175 106.595 22.2941V22.3451C106.799 22.4047 106.978 22.5323 107.131 22.728C107.293 22.9236 107.429 23.1874 107.539 23.5192L108.369 25.7908C108.403 25.8759 108.424 25.9525 108.433 26.0205C108.45 26.0801 108.458 26.1354 108.458 26.1864C108.458 26.3311 108.394 26.4289 108.267 26.48C108.139 26.5225 107.922 26.5438 107.616 26.5438H107.169C106.914 26.5438 106.706 26.5182 106.544 26.4672C106.391 26.4162 106.28 26.297 106.212 26.1099L105.472 24.068C105.404 23.8808 105.327 23.7361 105.242 23.6341C105.166 23.5235 105.064 23.4469 104.936 23.4043C104.808 23.3533 104.638 23.3278 104.426 23.3278H103.813V26.0588C103.813 26.212 103.741 26.3311 103.596 26.4162C103.46 26.5012 103.23 26.5438 102.907 26.5438H102.537ZM103.813 21.5028H104.91C105.242 21.5028 105.481 21.4262 105.625 21.2731C105.778 21.12 105.855 20.869 105.855 20.5201C105.855 20.1713 105.778 19.9203 105.625 19.7672C105.481 19.614 105.242 19.5375 104.91 19.5375H103.813V21.5028ZM112.011 26.5438C111.696 26.5438 111.466 26.5012 111.321 26.4162C111.177 26.3311 111.105 26.212 111.105 26.0588V19.5375H109.241C108.943 19.5375 108.795 19.2993 108.795 18.8228V18.2868C108.795 17.8189 108.943 17.5849 109.241 17.5849H115.15C115.448 17.5849 115.597 17.8189 115.597 18.2868V18.8228C115.597 19.2993 115.448 19.5375 115.15 19.5375H113.287V26.0588C113.287 26.212 113.214 26.3311 113.07 26.4162C112.934 26.5012 112.704 26.5438 112.381 26.5438H112.011Z" fill="white"/>
<path d="M29.1408 11.9562H24.7664V17.0803H35.0145C34.8942 14.2368 32.305 11.9562 29.1408 11.9562Z" fill="white"/>
<path d="M39.2804 9.17852C39.2804 5.99332 36.771 3.41606 33.6768 3.41606H0C0 6.60125 2.50944 9.17852 5.60356 9.17852H16.8534V12.0597H4.92926C4.92926 15.2449 7.43869 17.8265 10.5328 17.8265H16.8534V20.7077H9.76889C9.76889 23.8929 12.2783 26.4745 15.3767 26.4745H22.4228V24.8904H22.4612V9.17852H39.2847H39.2804Z" fill="white"/>
</svg>
