<svg width="171" height="43" viewBox="0 0 171 43" fill="none" xmlns="http://www.w3.org/2000/svg">
<path d="M69.8468 21.0445C69.2982 21.0445 68.8978 20.9703 68.6458 20.8221C68.3937 20.6738 68.2677 20.4662 68.2677 20.1993V6.32135C68.2677 5.72828 68.6235 5.43174 69.3352 5.43174H76.5856C77.1045 5.43174 77.364 5.83948 77.364 6.65496V7.58905C77.364 8.41936 77.1045 8.83452 76.5856 8.83452H72.0708V12.1261H76.252C76.7709 12.1261 77.0304 12.5338 77.0304 13.3493V14.2834C77.0304 15.0989 76.7709 15.5066 76.252 15.5066H72.0708V20.1993C72.0708 20.4662 71.9448 20.6738 71.6927 20.8221C71.4555 20.9703 71.0552 21.0445 70.4917 21.0445H69.8468ZM86.3253 21.1779C83.953 21.1779 82.1367 20.5033 80.8764 19.154C79.631 17.79 79.0082 15.8106 79.0082 13.2159C79.0082 10.6212 79.631 8.64918 80.8764 7.29993C82.1367 5.93585 83.953 5.25382 86.3253 5.25382C88.6976 5.25382 90.5065 5.93585 91.752 7.29993C92.9974 8.64918 93.6202 10.6212 93.6202 13.2159C93.6202 15.8106 92.9974 17.79 91.752 19.154C90.5065 20.5033 88.6976 21.1779 86.3253 21.1779ZM86.3253 17.7751C87.4522 17.7751 88.2899 17.3971 88.8385 16.6409C89.4019 15.8847 89.6836 14.743 89.6836 13.2159C89.6836 11.6739 89.4019 10.5322 88.8385 9.79085C88.2899 9.03468 87.4522 8.65659 86.3253 8.65659C85.1985 8.65659 84.3533 9.03468 83.7899 9.79085C83.2265 10.5322 82.9448 11.6739 82.9448 13.2159C82.9448 14.743 83.2265 15.8847 83.7899 16.6409C84.3533 17.3971 85.1985 17.7751 86.3253 17.7751ZM97.2997 21.0445C96.7511 21.0445 96.3508 20.9703 96.0987 20.8221C95.8467 20.6738 95.7207 20.4662 95.7207 20.1993V6.32135C95.7207 5.72828 96.0765 5.43174 96.7882 5.43174H101.37C103.268 5.43174 104.669 5.81724 105.573 6.58824C106.492 7.35924 106.952 8.48608 106.952 9.96878C106.952 10.6212 106.848 11.1994 106.641 11.7035C106.448 12.2076 106.159 12.6228 105.773 12.949C105.403 13.2752 104.936 13.505 104.372 13.6384V13.7274C104.728 13.8312 105.039 14.0536 105.306 14.3946C105.588 14.7356 105.825 15.1953 106.018 15.7735L107.464 19.7323C107.523 19.8806 107.56 20.014 107.575 20.1326C107.604 20.2364 107.619 20.3328 107.619 20.4218C107.619 20.6738 107.508 20.8443 107.286 20.9333C107.063 21.0074 106.685 21.0445 106.151 21.0445H105.373C104.928 21.0445 104.565 21 104.283 20.911C104.016 20.8221 103.824 20.6145 103.705 20.2883L102.415 16.7298C102.296 16.4037 102.163 16.1516 102.015 15.9737C101.881 15.7809 101.703 15.6475 101.481 15.5733C101.259 15.4844 100.962 15.4399 100.591 15.4399H99.5238V20.1993C99.5238 20.4662 99.3977 20.6738 99.1457 20.8221C98.9084 20.9703 98.5081 21.0445 97.9447 21.0445H97.2997ZM99.5238 12.2595H101.436C102.015 12.2595 102.43 12.1261 102.682 11.8592C102.949 11.5923 103.082 11.1549 103.082 10.547C103.082 9.93912 102.949 9.50173 102.682 9.23484C102.43 8.96796 102.015 8.83452 101.436 8.83452H99.5238V12.2595ZM112.681 21.0445C112.236 21.0445 111.888 20.9852 111.636 20.8666C111.398 20.7331 111.25 20.5181 111.191 20.2216L107.877 6.69944C107.847 6.566 107.818 6.43997 107.788 6.32135C107.743 6.20274 107.721 6.08412 107.721 5.96551C107.721 5.78758 107.81 5.64673 107.988 5.54294C108.166 5.43915 108.477 5.38726 108.922 5.38726H110.101C110.486 5.38726 110.805 5.42433 111.057 5.49846C111.324 5.57259 111.487 5.78017 111.547 6.12119L113.57 17.1969H113.659L115.883 6.16567C115.958 5.82465 116.121 5.60966 116.373 5.5207C116.625 5.43174 116.988 5.38726 117.463 5.38726H118.597C119.042 5.38726 119.405 5.43915 119.687 5.54294C119.983 5.6319 120.161 5.84689 120.22 6.18791L122.378 17.1969H122.467L124.535 6.12119C124.609 5.80983 124.75 5.60966 124.958 5.5207C125.18 5.43174 125.484 5.38726 125.869 5.38726H126.848C127.322 5.38726 127.656 5.43915 127.849 5.54294C128.042 5.64673 128.138 5.78758 128.138 5.96551C128.138 6.08412 128.123 6.20274 128.093 6.32135C128.064 6.43997 128.019 6.566 127.96 6.69944L124.668 20.2216C124.609 20.5181 124.453 20.7331 124.201 20.8666C123.964 20.9852 123.623 21.0445 123.178 21.0445H121.488C121.014 21.0445 120.658 20.9852 120.421 20.8666C120.183 20.7331 120.028 20.5107 119.953 20.1993L117.974 10.5693H117.885L115.906 20.1993C115.846 20.5107 115.691 20.7331 115.439 20.8666C115.201 20.9852 114.846 21.0445 114.371 21.0445H112.681ZM128.558 21.0445C128.083 21.0445 127.75 20.9926 127.557 20.8888C127.364 20.785 127.268 20.6442 127.268 20.4662C127.268 20.3476 127.29 20.229 127.335 20.1104C127.364 19.9918 127.394 19.8657 127.424 19.7323L131.827 6.18791C131.931 5.86172 132.102 5.64673 132.339 5.54294C132.576 5.43915 132.902 5.38726 133.317 5.38726H135.097C135.527 5.38726 135.853 5.43915 136.075 5.54294C136.312 5.64673 136.483 5.86172 136.587 6.18791L140.99 19.7323C141.05 19.8657 141.087 19.9918 141.101 20.1104C141.131 20.229 141.146 20.3476 141.146 20.4662C141.146 20.6442 141.057 20.785 140.879 20.8888C140.716 20.9926 140.412 21.0445 139.967 21.0445H138.677C138.292 21.0445 137.98 21 137.743 20.911C137.506 20.8221 137.343 20.6367 137.254 20.355L134.563 10.9696C134.503 10.7324 134.444 10.4951 134.385 10.2579C134.326 10.0207 134.274 9.78344 134.229 9.54621H134.14C134.096 9.78344 134.044 10.0207 133.985 10.2579C133.925 10.4951 133.866 10.7324 133.807 10.9696L131.049 20.355C130.975 20.6367 130.834 20.8221 130.626 20.911C130.433 21 130.137 21.0445 129.737 21.0445H128.558ZM130.382 18.042V14.9729H137.988V18.042H130.382ZM143.866 21.0445C143.317 21.0445 142.917 20.9703 142.665 20.8221C142.412 20.6738 142.286 20.4662 142.286 20.1993V6.32135C142.286 5.72828 142.642 5.43174 143.354 5.43174H147.935C149.833 5.43174 151.234 5.81724 152.139 6.58824C153.058 7.35924 153.518 8.48608 153.518 9.96878C153.518 10.6212 153.414 11.1994 153.206 11.7035C153.014 12.2076 152.725 12.6228 152.339 12.949C151.968 13.2752 151.501 13.505 150.938 13.6384V13.7274C151.294 13.8312 151.605 14.0536 151.872 14.3946C152.154 14.7356 152.391 15.1953 152.584 15.7735L154.029 19.7323C154.089 19.8806 154.126 20.014 154.141 20.1326C154.17 20.2364 154.185 20.3328 154.185 20.4218C154.185 20.6738 154.074 20.8443 153.851 20.9333C153.629 21.0074 153.251 21.0445 152.717 21.0445H151.939C151.494 21.0445 151.131 21 150.849 20.911C150.582 20.8221 150.389 20.6145 150.271 20.2883L148.981 16.7298C148.862 16.4037 148.729 16.1516 148.58 15.9737C148.447 15.7809 148.269 15.6475 148.047 15.5733C147.824 15.4844 147.528 15.4399 147.157 15.4399H146.09V20.1993C146.09 20.4662 145.964 20.6738 145.711 20.8221C145.474 20.9703 145.074 21.0445 144.51 21.0445H143.866ZM146.09 12.2595H148.002C148.58 12.2595 148.996 12.1261 149.248 11.8592C149.515 11.5923 149.648 11.1549 149.648 10.547C149.648 9.93912 149.515 9.50173 149.248 9.23484C148.996 8.96796 148.58 8.83452 148.002 8.83452H146.09V12.2595ZM156.928 21C156.217 21 155.861 20.7035 155.861 20.1104V6.32135C155.861 5.72828 156.217 5.43174 156.928 5.43174H161.933C164.305 5.43174 166.114 6.09154 167.359 7.41113C168.605 8.73073 169.227 10.6656 169.227 13.2159C169.227 15.7513 168.605 17.6862 167.359 19.0206C166.114 20.3402 164.305 21 161.933 21H156.928ZM159.664 17.5972H161.933C163.059 17.5972 163.897 17.234 164.446 16.5074C165.009 15.7809 165.291 14.6837 165.291 13.2159C165.291 11.748 165.009 10.6508 164.446 9.92429C163.897 9.19778 163.059 8.83452 161.933 8.83452H159.664V17.5972Z" fill="#88A795"/>
<path d="M71.8686 39.0375C71.4067 39.0375 71.0696 38.975 70.8574 38.8502C70.6452 38.7254 70.5391 38.5506 70.5391 38.3259V28.7573H67.8052C67.3683 28.7573 67.1498 28.4077 67.1498 27.7087V26.9222C67.1498 26.2356 67.3683 25.8923 67.8052 25.8923H76.475C76.9119 25.8923 77.1304 26.2356 77.1304 26.9222V27.7087C77.1304 28.4077 76.9119 28.7573 76.475 28.7573H73.7411V38.3259C73.7411 38.5506 73.635 38.7254 73.4228 38.8502C73.223 38.975 72.886 39.0375 72.4116 39.0375H71.8686ZM79.6738 39.0375C79.2119 39.0375 78.8749 38.975 78.6626 38.8502C78.4504 38.7254 78.3443 38.5506 78.3443 38.3259V26.6413C78.3443 26.142 78.6439 25.8923 79.2431 25.8923H83.1005C84.6984 25.8923 85.8781 26.2169 86.6396 26.866C87.4136 27.5152 87.8006 28.4639 87.8006 29.7123C87.8006 30.2615 87.7132 30.7484 87.5384 31.1728C87.3761 31.5973 87.1327 31.9468 86.8081 32.2214C86.496 32.4961 86.1028 32.6896 85.6284 32.8019V32.8768C85.928 32.9642 86.1902 33.1515 86.4149 33.4386C86.6521 33.7257 86.8518 34.1127 87.0141 34.5996L88.2313 37.9327C88.2812 38.0575 88.3124 38.1698 88.3249 38.2697C88.3499 38.3571 88.3623 38.4382 88.3623 38.5131C88.3623 38.7254 88.2687 38.8689 88.0815 38.9438C87.8942 39.0062 87.5759 39.0375 87.1265 39.0375H86.4711C86.0966 39.0375 85.7907 39 85.5535 38.9251C85.3288 38.8502 85.1666 38.6754 85.0667 38.4008L83.9806 35.4047C83.8808 35.1301 83.7684 34.9179 83.6436 34.7681C83.5312 34.6058 83.3814 34.4934 83.1942 34.431C83.0069 34.3561 82.7572 34.3187 82.4451 34.3187H81.5463V38.3259C81.5463 38.5506 81.4402 38.7254 81.228 38.8502C81.0283 38.975 80.6912 39.0375 80.2168 39.0375H79.6738ZM81.5463 31.641H83.1567C83.6436 31.641 83.9931 31.5286 84.2053 31.3039C84.43 31.0792 84.5424 30.7109 84.5424 30.1991C84.5424 29.6873 84.43 29.319 84.2053 29.0943C83.9931 28.8696 83.6436 28.7573 83.1567 28.7573H81.5463V31.641ZM89.6984 39.0375C89.2989 39.0375 89.0181 38.9938 88.8558 38.9064C88.6935 38.819 88.6123 38.7004 88.6123 38.5506C88.6123 38.4507 88.6311 38.3509 88.6685 38.251C88.6935 38.1511 88.7185 38.045 88.7434 37.9327L92.451 26.529C92.5384 26.2543 92.682 26.0733 92.8817 25.9859C93.0815 25.8985 93.3561 25.8548 93.7056 25.8548H95.2036C95.5657 25.8548 95.8403 25.8985 96.0276 25.9859C96.2273 26.0733 96.3709 26.2543 96.4582 26.529L100.166 37.9327C100.216 38.045 100.247 38.1511 100.259 38.251C100.284 38.3509 100.297 38.4507 100.297 38.5506C100.297 38.7004 100.222 38.819 100.072 38.9064C99.9349 38.9938 99.679 39.0375 99.3045 39.0375H98.2184C97.8938 39.0375 97.6317 39 97.432 38.9251C97.2322 38.8502 97.0949 38.6942 97.02 38.457L94.7542 30.5549C94.7043 30.3552 94.6544 30.1554 94.6044 29.9557C94.5545 29.7559 94.5108 29.5562 94.4734 29.3565H94.3985C94.361 29.5562 94.3173 29.7559 94.2674 29.9557C94.2175 30.1554 94.1675 30.3552 94.1176 30.5549L91.7956 38.457C91.7332 38.6942 91.6146 38.8502 91.4399 38.9251C91.2776 39 91.0279 39.0375 90.6909 39.0375H89.6984ZM91.2339 36.5095V33.9254H97.6379V36.5095H91.2339ZM102.587 39.0375C102.125 39.0375 101.788 38.975 101.576 38.8502C101.363 38.7254 101.257 38.5506 101.257 38.3259V26.5664C101.257 26.3292 101.363 26.1545 101.576 26.0421C101.788 25.9173 102.125 25.8548 102.587 25.8548H103.111C103.398 25.8548 103.629 25.8736 103.804 25.911C103.991 25.9485 104.153 26.0171 104.291 26.117C104.428 26.2044 104.565 26.3542 104.703 26.5664L108.541 32.0342C108.754 32.3213 108.96 32.6396 109.159 32.9892C109.359 33.3262 109.515 33.6071 109.627 33.8318L109.702 33.8131C109.665 33.5759 109.634 33.2825 109.609 32.933C109.596 32.5835 109.59 32.2402 109.59 31.9031V26.5664C109.59 26.3417 109.696 26.1669 109.908 26.0421C110.12 25.9173 110.458 25.8548 110.919 25.8548H111.256C111.731 25.8548 112.068 25.9173 112.268 26.0421C112.48 26.1669 112.586 26.3417 112.586 26.5664V38.3259C112.586 38.5506 112.48 38.7254 112.268 38.8502C112.068 38.975 111.731 39.0375 111.256 39.0375H110.732C110.47 39.0375 110.245 39.025 110.058 39C109.883 38.9625 109.727 38.9001 109.59 38.8127C109.465 38.7129 109.34 38.5693 109.215 38.3821L105.302 32.8394C105.09 32.5273 104.884 32.2027 104.684 31.8657C104.484 31.5286 104.328 31.2477 104.216 31.023L104.141 31.0418C104.178 31.2789 104.203 31.5723 104.216 31.9218C104.241 32.2714 104.253 32.6209 104.253 32.9705V38.3259C104.253 38.5506 104.147 38.7254 103.935 38.8502C103.735 38.975 103.398 39.0375 102.924 39.0375H102.587ZM118.405 39.1498C117.756 39.1498 117.169 39.0999 116.645 39C116.12 38.9126 115.671 38.794 115.296 38.6442C114.934 38.4944 114.641 38.3509 114.416 38.2135C114.242 38.1012 114.098 37.9951 113.986 37.8952C113.873 37.7829 113.817 37.6518 113.817 37.502C113.817 37.3522 113.836 37.1712 113.873 36.9589C113.923 36.7342 113.986 36.5095 114.061 36.2848C114.148 36.0601 114.242 35.8729 114.341 35.7231C114.441 35.5733 114.547 35.4984 114.66 35.4984C114.81 35.4984 115.059 35.5795 115.409 35.7418C115.771 35.8916 116.195 36.0476 116.682 36.2099C117.181 36.3597 117.7 36.4346 118.236 36.4346C118.548 36.4346 118.804 36.4034 119.004 36.341C119.216 36.2786 119.372 36.1725 119.472 36.0227C119.585 35.8604 119.641 35.6544 119.641 35.4047C119.641 35.1925 119.578 35.0115 119.453 34.8617C119.329 34.7119 119.148 34.5683 118.91 34.431C118.686 34.2812 118.392 34.1314 118.03 33.9816C117.681 33.8318 117.269 33.6508 116.794 33.4386C116.445 33.2763 116.108 33.0953 115.783 32.8956C115.471 32.6833 115.184 32.4337 114.922 32.1465C114.66 31.8594 114.454 31.5099 114.304 31.0979C114.154 30.6735 114.079 30.1804 114.079 29.6186C114.079 28.9196 114.21 28.3266 114.473 27.8397C114.735 27.3529 115.084 26.9596 115.521 26.66C115.971 26.3479 116.47 26.117 117.019 25.9672C117.568 25.8174 118.124 25.7425 118.686 25.7425C119.023 25.7425 119.366 25.7675 119.716 25.8174C120.065 25.8673 120.396 25.936 120.708 26.0234C121.033 26.1108 121.307 26.2169 121.532 26.3417C121.744 26.4416 121.913 26.5477 122.038 26.66C122.175 26.7599 122.244 26.8785 122.244 27.0158C122.244 27.1406 122.219 27.3154 122.169 27.5401C122.131 27.7523 122.069 27.9708 121.981 28.1955C121.906 28.4202 121.819 28.6137 121.719 28.776C121.619 28.9258 121.507 29.0007 121.382 29.0007C121.245 29.0007 121.039 28.957 120.764 28.8696C120.502 28.7698 120.19 28.6761 119.828 28.5887C119.478 28.4889 119.079 28.4389 118.63 28.4389C118.305 28.4389 118.037 28.4764 117.824 28.5513C117.612 28.6137 117.456 28.7136 117.356 28.8509C117.269 28.9757 117.225 29.1505 117.225 29.3752C117.225 29.6498 117.319 29.8808 117.506 30.068C117.693 30.2428 117.943 30.3926 118.255 30.5174C118.567 30.6423 118.892 30.7858 119.229 30.9481C119.641 31.1104 120.059 31.2977 120.483 31.5099C120.908 31.7096 121.295 31.9593 121.644 32.2589C122.006 32.5585 122.293 32.9392 122.506 33.4011C122.73 33.8505 122.843 34.4123 122.843 35.0864C122.843 35.8354 122.712 36.4721 122.45 36.9964C122.2 37.5082 121.857 37.9264 121.42 38.251C120.995 38.5631 120.521 38.794 119.997 38.9438C119.485 39.0811 118.954 39.1498 118.405 39.1498ZM125.408 39.0375C124.946 39.0375 124.609 38.975 124.397 38.8502C124.185 38.7254 124.079 38.5506 124.079 38.3259V26.6413C124.079 26.142 124.378 25.8923 124.977 25.8923H128.891C130.439 25.8923 131.6 26.2543 132.374 26.9784C133.148 27.6899 133.535 28.7573 133.535 30.1804C133.535 31.616 133.148 32.6958 132.374 33.4199C131.6 34.1439 130.439 34.5059 128.891 34.5059H127.281V38.3259C127.281 38.5506 127.175 38.7254 126.962 38.8502C126.763 38.975 126.426 39.0375 125.951 39.0375H125.408ZM127.281 31.641H128.91C129.384 31.641 129.727 31.5286 129.94 31.3039C130.164 31.0792 130.277 30.7109 130.277 30.1991C130.277 29.6873 130.164 29.319 129.94 29.0943C129.727 28.8696 129.384 28.7573 128.91 28.7573H127.281V31.641ZM140.544 39.1498C138.547 39.1498 137.017 38.5818 135.956 37.4458C134.908 36.2973 134.383 34.6308 134.383 32.4461C134.383 30.2615 134.908 28.6012 135.956 27.4652C137.017 26.3167 138.547 25.7425 140.544 25.7425C142.541 25.7425 144.064 26.3167 145.113 27.4652C146.162 28.6012 146.686 30.2615 146.686 32.4461C146.686 34.6308 146.162 36.2973 145.113 37.4458C144.064 38.5818 142.541 39.1498 140.544 39.1498ZM140.544 36.2848C141.493 36.2848 142.198 35.9665 142.66 35.3298C143.134 34.6932 143.372 33.732 143.372 32.4461C143.372 31.1479 143.134 30.1866 142.66 29.5625C142.198 28.9258 141.493 28.6075 140.544 28.6075C139.595 28.6075 138.884 28.9258 138.409 29.5625C137.935 30.1866 137.698 31.1479 137.698 32.4461C137.698 33.732 137.935 34.6932 138.409 35.3298C138.884 35.9665 139.595 36.2848 140.544 36.2848ZM149.784 39.0375C149.322 39.0375 148.985 38.975 148.773 38.8502C148.561 38.7254 148.454 38.5506 148.454 38.3259V26.6413C148.454 26.142 148.754 25.8923 149.353 25.8923H153.211C154.809 25.8923 155.988 26.2169 156.75 26.866C157.524 27.5152 157.911 28.4639 157.911 29.7123C157.911 30.2615 157.823 30.7484 157.649 31.1728C157.486 31.5973 157.243 31.9468 156.918 32.2214C156.606 32.4961 156.213 32.6896 155.739 32.8019V32.8768C156.038 32.9642 156.3 33.1515 156.525 33.4386C156.762 33.7257 156.962 34.1127 157.124 34.5996L158.341 37.9327C158.391 38.0575 158.423 38.1698 158.435 38.2697C158.46 38.3571 158.472 38.4382 158.472 38.5131C158.472 38.7254 158.379 38.8689 158.192 38.9438C158.004 39.0062 157.686 39.0375 157.237 39.0375H156.581C156.207 39.0375 155.901 39 155.664 38.9251C155.439 38.8502 155.277 38.6754 155.177 38.4008L154.091 35.4047C153.991 35.1301 153.879 34.9179 153.754 34.7681C153.641 34.6058 153.492 34.4934 153.304 34.431C153.117 34.3561 152.867 34.3187 152.555 34.3187H151.656V38.3259C151.656 38.5506 151.55 38.7254 151.338 38.8502C151.138 38.975 150.801 39.0375 150.327 39.0375H149.784ZM151.656 31.641H153.267C153.754 31.641 154.103 31.5286 154.315 31.3039C154.54 31.0792 154.652 30.7109 154.652 30.1991C154.652 29.6873 154.54 29.319 154.315 29.0943C154.103 28.8696 153.754 28.7573 153.267 28.7573H151.656V31.641ZM163.685 39.0375C163.223 39.0375 162.886 38.975 162.673 38.8502C162.461 38.7254 162.355 38.5506 162.355 38.3259V28.7573H159.621C159.184 28.7573 158.966 28.4077 158.966 27.7087V26.9222C158.966 26.2356 159.184 25.8923 159.621 25.8923H168.291C168.728 25.8923 168.946 26.2356 168.946 26.9222V27.7087C168.946 28.4077 168.728 28.7573 168.291 28.7573H165.557V38.3259C165.557 38.5506 165.451 38.7254 165.239 38.8502C165.039 38.975 164.702 39.0375 164.228 39.0375H163.685Z" fill="#747474"/>
<path d="M42.4028 18H36V26H51C50.8239 21.5605 47.0341 18 42.4028 18Z" fill="#747474"/>
<path d="M57.9937 13.4968C57.9937 8.80022 54.2888 5 49.7206 5H0C0 9.69662 3.70494 13.4968 8.27311 13.4968H24.8823V17.7453H7.27757C7.27757 22.4419 10.9825 26.2484 15.5507 26.2484H24.8823V30.4968H14.4228C14.4228 35.1935 18.1278 39 22.7022 39H33.1051V36.6643H33.1618V13.4968H58H57.9937Z" fill="#88A795"/>
</svg>
