<svg width="287" height="36" viewBox="0 0 287 36" fill="none" xmlns="http://www.w3.org/2000/svg">
<path d="M58.63 34L57 28H58.3405L58.882 30.3483C58.9625 30.7358 59.0536 31.1585 59.1501 31.6223C59.2467 32.0861 59.3432 32.5969 59.429 33.1605H59.2681C59.3539 32.6086 59.4504 32.1037 59.5523 31.6399C59.6542 31.1761 59.7507 30.7476 59.8418 30.3483L60.3941 28H61.6113L62.1528 30.3483C62.2386 30.7358 62.3351 31.1644 62.437 31.6282C62.5389 32.092 62.63 32.6027 62.7212 33.1605H62.5603C62.6461 32.6086 62.7373 32.0978 62.8338 31.6341C62.9303 31.1703 63.0161 30.7417 63.1072 30.3483L63.6488 28H65L63.3646 34H62.0777L61.4343 31.5519C61.37 31.3053 61.3056 31.0411 61.2413 30.7593C61.1769 30.4775 61.118 30.1898 61.059 29.8904C61 29.591 60.941 29.3092 60.882 29.0391H61.118C61.059 29.3092 61 29.5969 60.941 29.8904C60.882 30.184 60.8177 30.4775 60.7587 30.7593C60.6997 31.047 60.6354 31.3112 60.571 31.546L59.9276 33.9941H58.6407L58.63 34Z" fill="white"/>
<path d="M69.6188 34C69.075 34 68.6103 33.875 68.2196 33.6307C67.8289 33.3864 67.528 33.0398 67.3168 32.5909C67.1056 32.142 67 31.6193 67 31.0114C67 30.4034 67.1056 29.8864 67.3115 29.4375C67.5174 28.9886 67.8131 28.6364 68.1932 28.3807C68.5734 28.125 69.0222 28 69.5343 28C69.8617 28 70.1732 28.0568 70.4741 28.1705C70.7751 28.2841 71.0338 28.4602 71.2661 28.6989C71.4984 28.9375 71.6779 29.2386 71.8046 29.608C71.9314 29.9773 72 30.4148 72 30.9261V31.3523H67.5913V30.4318H71.377L70.7909 30.7045C70.7909 30.3807 70.7434 30.0909 70.6484 29.8466C70.5533 29.5966 70.4161 29.4034 70.2313 29.267C70.0465 29.1307 69.8141 29.0568 69.5396 29.0568C69.265 29.0568 69.0275 29.125 68.8374 29.267C68.6473 29.4091 68.4995 29.5966 68.3939 29.8295C68.2883 30.0625 68.2408 30.3239 68.2408 30.6136V31.2443C68.2408 31.6136 68.2988 31.9205 68.415 32.1761C68.5312 32.4261 68.6948 32.6193 68.9007 32.75C69.1119 32.8807 69.3548 32.9432 69.6294 32.9432C69.8142 32.9432 69.9778 32.9148 70.1309 32.858C70.2841 32.8011 70.4108 32.7159 70.5216 32.6023C70.6325 32.4886 70.7117 32.3523 70.7698 32.1875L71.9208 32.4432C71.8363 32.7557 71.6832 33.0284 71.4773 33.2614C71.2714 33.4943 71.0074 33.6761 70.6959 33.8068C70.3844 33.9375 70.0253 34 69.6241 34H69.6188Z" fill="white"/>
<path d="M80.7664 28.2625V29.3067H77V28.2625H80.7664ZM78.092 34V27.7179C78.092 27.3361 78.1737 27.0161 78.3372 26.7635C78.5007 26.5109 78.7285 26.32 79.0088 26.1909C79.289 26.0618 79.6044 26 79.9372 26C80.1825 26 80.3985 26.0168 80.5854 26.0561C80.7723 26.0954 80.9124 26.1291 81 26.1572L80.7197 27.1958C80.6613 27.1789 80.5854 27.1621 80.4978 27.1396C80.4102 27.1228 80.3109 27.1116 80.1883 27.1116C79.9255 27.1116 79.7445 27.1733 79.6336 27.2968C79.5226 27.4203 79.4642 27.5944 79.4642 27.8189V34H78.0803H78.092Z" fill="white"/>
<path d="M85.9969 34C85.3902 34 84.857 33.875 84.4096 33.625C83.9622 33.375 83.6129 33.0227 83.3677 32.5739C83.1226 32.125 83 31.6023 83 31.0057C83 30.4091 83.1226 29.875 83.3677 29.4261C83.6129 28.9773 83.9561 28.625 84.4096 28.375C84.8631 28.125 85.3841 28 85.9969 28C86.6098 28 87.1369 28.125 87.5904 28.375C88.0439 28.625 88.3871 28.9773 88.6323 29.4261C88.8774 29.875 89 30.4034 89 31.0057C89 31.608 88.8774 32.125 88.6323 32.5739C88.3871 33.0227 88.0439 33.3693 87.5904 33.625C87.143 33.875 86.6098 34 85.9969 34ZM85.9969 32.9034C86.334 32.9034 86.6221 32.8182 86.8427 32.6477C87.0695 32.4773 87.2349 32.25 87.3453 31.9602C87.4556 31.6705 87.5107 31.3523 87.5107 31C87.5107 30.6477 87.4556 30.3239 87.3453 30.0341C87.2349 29.7443 87.0695 29.517 86.8427 29.3466C86.6159 29.1761 86.334 29.0909 85.9969 29.0909C85.6599 29.0909 85.3779 29.1761 85.1512 29.3466C84.9305 29.517 84.7651 29.7443 84.6547 30.0284C84.5444 30.3125 84.4893 30.6364 84.4893 30.9943C84.4893 31.3523 84.5444 31.6648 84.6547 31.9545C84.7651 32.2443 84.9305 32.4716 85.1512 32.642C85.3718 32.8125 85.6537 32.8977 85.9969 32.8977V32.9034Z" fill="white"/>
<path d="M91 26V34H90V26H91Z" fill="white"/>
<path d="M95 26V34H94V26H95Z" fill="white"/>
<path d="M100.997 34C100.39 34 99.857 33.875 99.4096 33.625C98.9622 33.375 98.6129 33.0227 98.3677 32.5739C98.1226 32.125 98 31.6023 98 31.0057C98 30.4091 98.1226 29.875 98.3677 29.4261C98.6129 28.9773 98.9561 28.625 99.4096 28.375C99.8631 28.125 100.384 28 100.997 28C101.61 28 102.137 28.125 102.59 28.375C103.044 28.625 103.387 28.9773 103.632 29.4261C103.877 29.875 104 30.4034 104 31.0057C104 31.608 103.877 32.125 103.632 32.5739C103.387 33.0227 103.044 33.3693 102.59 33.625C102.143 33.875 101.61 34 100.997 34ZM100.997 32.9034C101.334 32.9034 101.622 32.8182 101.843 32.6477C102.069 32.4773 102.235 32.25 102.345 31.9602C102.456 31.6705 102.511 31.3523 102.511 31C102.511 30.6477 102.456 30.3239 102.345 30.0341C102.235 29.7443 102.069 29.517 101.843 29.3466C101.616 29.1761 101.334 29.0909 100.997 29.0909C100.66 29.0909 100.378 29.1761 100.151 29.3466C99.9305 29.517 99.7651 29.7443 99.6547 30.0284C99.5444 30.3125 99.4893 30.6364 99.4893 30.9943C99.4893 31.3523 99.5444 31.6648 99.6547 31.9545C99.7651 32.2443 99.9305 32.4716 100.151 32.642C100.372 32.8125 100.654 32.8977 100.997 32.8977V32.9034Z" fill="white"/>
<path d="M106.63 34L105 28H106.34L106.882 30.3483C106.962 30.7358 107.054 31.1585 107.15 31.6223C107.247 32.0861 107.343 32.5969 107.429 33.1605H107.268C107.354 32.6086 107.45 32.1037 107.552 31.6399C107.654 31.1761 107.751 30.7476 107.842 30.3483L108.394 28H109.611L110.153 30.3483C110.239 30.7358 110.335 31.1644 110.437 31.6282C110.539 32.092 110.63 32.6027 110.721 33.1605H110.56C110.646 32.6086 110.737 32.0978 110.834 31.6341C110.93 31.1703 111.016 30.7417 111.107 30.3483L111.649 28H113L111.365 34H110.078L109.434 31.5519C109.37 31.3053 109.306 31.0411 109.241 30.7593C109.177 30.4775 109.118 30.1898 109.059 29.8904C109 29.591 108.941 29.3092 108.882 29.0391H109.118C109.059 29.3092 109 29.5969 108.941 29.8904C108.882 30.184 108.818 30.4775 108.759 30.7593C108.7 31.047 108.635 31.3112 108.571 31.546L107.928 33.9941H106.641L106.63 34Z" fill="white"/>
<path d="M118.472 35.8752L118.798 34.8199L118.961 34.8596C119.171 34.9106 119.357 34.9277 119.52 34.905C119.683 34.8823 119.817 34.8142 119.928 34.695C120.039 34.5816 120.115 34.4113 120.161 34.1901L120.249 33.8213L118 28.0057H119.48L120.563 31.1603C120.691 31.5348 120.796 31.9035 120.878 32.2723C120.959 32.6411 121.052 33.0213 121.151 33.4071H120.79C120.883 33.0213 120.983 32.6411 121.076 32.2667C121.169 31.8979 121.285 31.5234 121.414 31.1546L122.538 28H124L121.443 34.5418C121.32 34.8482 121.169 35.1149 120.988 35.3305C120.808 35.5518 120.586 35.7163 120.324 35.8298C120.062 35.9433 119.753 36 119.392 36C119.194 36 119.019 35.9887 118.85 35.9603C118.687 35.9319 118.559 35.8979 118.466 35.8638L118.472 35.8752Z" fill="white"/>
<path d="M128.997 34C128.39 34 127.857 33.875 127.41 33.625C126.962 33.375 126.613 33.0227 126.368 32.5739C126.123 32.125 126 31.6023 126 31.0057C126 30.4091 126.123 29.875 126.368 29.4261C126.613 28.9773 126.956 28.625 127.41 28.375C127.863 28.125 128.384 28 128.997 28C129.61 28 130.137 28.125 130.59 28.375C131.044 28.625 131.387 28.9773 131.632 29.4261C131.877 29.875 132 30.4034 132 31.0057C132 31.608 131.877 32.125 131.632 32.5739C131.387 33.0227 131.044 33.3693 130.59 33.625C130.143 33.875 129.61 34 128.997 34ZM128.997 32.9034C129.334 32.9034 129.622 32.8182 129.843 32.6477C130.069 32.4773 130.235 32.25 130.345 31.9602C130.456 31.6705 130.511 31.3523 130.511 31C130.511 30.6477 130.456 30.3239 130.345 30.0341C130.235 29.7443 130.069 29.517 129.843 29.3466C129.616 29.1761 129.334 29.0909 128.997 29.0909C128.66 29.0909 128.378 29.1761 128.151 29.3466C127.931 29.517 127.765 29.7443 127.655 30.0284C127.544 30.3125 127.489 30.6364 127.489 30.9943C127.489 31.3523 127.544 31.6648 127.655 31.9545C127.765 32.2443 127.931 32.4716 128.151 32.642C128.372 32.8125 128.654 32.8977 128.997 32.8977V32.9034Z" fill="white"/>
<path d="M134.952 34C134.56 34 134.219 33.913 133.923 33.7391C133.626 33.5652 133.403 33.3101 133.24 32.9797C133.078 32.6493 133 32.2435 133 31.7681V28H134.331V31.5536C134.331 31.9478 134.432 32.2609 134.628 32.487C134.829 32.713 135.103 32.8232 135.45 32.8232C135.685 32.8232 135.897 32.771 136.076 32.6667C136.255 32.5623 136.406 32.4058 136.507 32.2029C136.613 32 136.663 31.7565 136.663 31.4725V28H138V33.9246H136.736L136.719 32.4638H136.82C136.658 32.9797 136.423 33.3623 136.11 33.6174C135.796 33.8725 135.411 34 134.952 34Z" fill="white"/>
<path d="M141.005 34V28.0811H142.193V29.0714H142.25C142.343 28.7297 142.508 28.4633 142.745 28.278C142.983 28.0927 143.251 28 143.551 28C143.618 28 143.695 28 143.783 28.0116C143.866 28.0174 143.938 28.029 144 28.0405V29.3031C143.948 29.2857 143.866 29.2683 143.752 29.2568C143.639 29.2452 143.525 29.2336 143.417 29.2336C143.189 29.2336 142.988 29.2857 142.807 29.3958C142.627 29.5058 142.487 29.6564 142.384 29.8475C142.281 30.0386 142.229 30.2587 142.229 30.5135V33.9942H141L141.005 34Z" fill="white"/>
<path d="M152.19 33.9884C151.774 33.9884 151.4 33.8668 151.067 33.6293C150.734 33.3917 150.473 33.0442 150.286 32.5865C150.099 32.1289 150 31.5786 150 30.9298C150 30.281 150.099 29.719 150.291 29.2672C150.484 28.8154 150.749 28.4678 151.082 28.2361C151.415 28.0043 151.785 27.8885 152.185 27.8885C152.503 27.8885 152.763 27.9464 152.96 28.0681C153.163 28.1839 153.319 28.3287 153.439 28.4909C153.559 28.6531 153.647 28.8038 153.71 28.9486H153.762V26H155V33.8899H153.788V32.9515H153.71C153.647 33.0905 153.554 33.2469 153.434 33.4091C153.314 33.5713 153.153 33.7104 152.95 33.8262C152.747 33.9421 152.497 34 152.19 34V33.9884ZM152.529 32.853C152.799 32.853 153.028 32.7719 153.215 32.6097C153.403 32.4475 153.543 32.2216 153.642 31.9319C153.741 31.6423 153.788 31.3063 153.788 30.9182C153.788 30.5301 153.741 30.1999 153.642 29.916C153.543 29.6322 153.403 29.412 153.215 29.2498C153.028 29.0876 152.799 29.0123 152.529 29.0123C152.258 29.0123 152.019 29.0934 151.831 29.2556C151.644 29.4178 151.504 29.6437 151.41 29.9334C151.316 30.223 151.27 30.5474 151.27 30.9182C151.27 31.2889 151.316 31.6133 151.41 31.903C151.504 32.1926 151.649 32.4243 151.837 32.5923C152.024 32.7603 152.258 32.8414 152.534 32.8414L152.529 32.853Z" fill="white"/>
<path d="M157.005 34V28.0811H158.193V29.0714H158.25C158.343 28.7297 158.508 28.4633 158.745 28.278C158.983 28.0927 159.251 28 159.551 28C159.618 28 159.695 28 159.783 28.0116C159.866 28.0174 159.938 28.029 160 28.0405V29.3031C159.948 29.2857 159.866 29.2683 159.752 29.2568C159.639 29.2452 159.525 29.2336 159.417 29.2336C159.189 29.2336 158.988 29.2857 158.807 29.3958C158.626 29.5058 158.487 29.6564 158.384 29.8475C158.281 30.0386 158.229 30.2587 158.229 30.5135V33.9942H157L157.005 34Z" fill="white"/>
<path d="M164.619 34C164.075 34 163.61 33.875 163.22 33.6307C162.829 33.3864 162.528 33.0398 162.317 32.5909C162.106 32.142 162 31.6193 162 31.0114C162 30.4034 162.106 29.8864 162.312 29.4375C162.517 28.9886 162.813 28.6364 163.193 28.3807C163.573 28.125 164.022 28 164.534 28C164.862 28 165.173 28.0568 165.474 28.1705C165.775 28.2841 166.034 28.4602 166.266 28.6989C166.498 28.9375 166.678 29.2386 166.805 29.608C166.931 29.9773 167 30.4148 167 30.9261V31.3523H162.591V30.4318H166.377L165.791 30.7045C165.791 30.3807 165.743 30.0909 165.648 29.8466C165.553 29.5966 165.416 29.4034 165.231 29.267C165.046 29.1307 164.814 29.0568 164.54 29.0568C164.265 29.0568 164.027 29.125 163.837 29.267C163.647 29.4091 163.499 29.5966 163.394 29.8295C163.288 30.0625 163.241 30.3239 163.241 30.6136V31.2443C163.241 31.6136 163.299 31.9205 163.415 32.1761C163.531 32.4261 163.695 32.6193 163.901 32.75C164.112 32.8807 164.355 32.9432 164.629 32.9432C164.814 32.9432 164.978 32.9148 165.131 32.858C165.284 32.8011 165.411 32.7159 165.522 32.6023C165.633 32.4886 165.712 32.3523 165.77 32.1875L166.921 32.4432C166.836 32.7557 166.683 33.0284 166.477 33.2614C166.271 33.4943 166.007 33.6761 165.696 33.8068C165.384 33.9375 165.025 34 164.624 34H164.619Z" fill="white"/>
<path d="M171.945 33.9943C171.576 33.9943 171.246 33.9261 170.95 33.7953C170.654 33.6645 170.421 33.4654 170.256 33.2038C170.091 32.9422 170 32.6237 170 32.2427C170 31.9128 170.063 31.6398 170.182 31.4294C170.307 31.2133 170.472 31.0427 170.683 30.9175C170.893 30.7867 171.126 30.69 171.394 30.6275C171.655 30.5592 171.928 30.5137 172.213 30.4853C172.548 30.4455 172.821 30.4171 173.032 30.3886C173.242 30.3602 173.396 30.3147 173.498 30.2521C173.601 30.1896 173.646 30.0929 173.646 29.9621V29.9336C173.646 29.746 173.606 29.581 173.532 29.4502C173.458 29.3194 173.345 29.2171 173.191 29.1431C173.038 29.0749 172.856 29.0351 172.634 29.0351C172.412 29.0351 172.213 29.0692 172.048 29.1374C171.883 29.2057 171.746 29.2967 171.644 29.4104C171.542 29.5242 171.462 29.6436 171.416 29.7687L170.165 29.5128C170.279 29.1716 170.455 28.8872 170.694 28.6654C170.933 28.4436 171.217 28.273 171.547 28.1649C171.877 28.0569 172.235 28 172.628 28C172.901 28 173.18 28.0341 173.458 28.0967C173.737 28.1592 173.993 28.2673 174.226 28.4209C174.46 28.5744 174.647 28.7791 174.79 29.0351C174.932 29.291 175 29.6152 175 30.0019V33.8863H173.703V33.0844H173.652C173.567 33.2493 173.447 33.3972 173.294 33.5393C173.14 33.6815 172.958 33.7896 172.73 33.8749C172.503 33.9602 172.241 34 171.94 34L171.945 33.9943ZM172.292 32.9934C172.571 32.9934 172.816 32.9365 173.015 32.8284C173.22 32.7204 173.373 32.5725 173.487 32.3905C173.601 32.2085 173.658 32.0095 173.658 31.7934V31.1052C173.612 31.1393 173.538 31.1735 173.43 31.2019C173.322 31.2303 173.208 31.2588 173.077 31.2872C172.947 31.31 172.821 31.3327 172.691 31.3498C172.565 31.3668 172.457 31.3782 172.372 31.3896C172.173 31.418 171.991 31.4635 171.826 31.5261C171.661 31.5886 171.536 31.6739 171.445 31.7877C171.354 31.9014 171.308 32.0493 171.308 32.2256C171.308 32.3905 171.348 32.5327 171.433 32.6464C171.519 32.7602 171.633 32.8455 171.78 32.9024C171.928 32.9592 172.099 32.9934 172.287 32.9934H172.292Z" fill="white"/>
<path d="M177 34V28.0925H178.245L178.295 29.5145H178.2C178.284 29.1619 178.407 28.8728 178.58 28.6532C178.753 28.4335 178.954 28.2659 179.183 28.1619C179.412 28.052 179.652 28 179.903 28C180.316 28 180.646 28.1329 180.902 28.3988C181.154 28.6647 181.332 29.0636 181.438 29.5838H181.282C181.36 29.2312 181.494 28.9364 181.684 28.7052C181.874 28.4682 182.097 28.2948 182.359 28.1792C182.622 28.0636 182.895 28 183.191 28C183.532 28 183.844 28.0751 184.112 28.2312C184.386 28.3873 184.598 28.6127 184.76 28.9075C184.922 29.2023 185 29.5723 185 30.0116V33.9942H183.671V30.2254C183.671 29.8613 183.576 29.5896 183.381 29.422C183.186 29.2543 182.957 29.1676 182.683 29.1676C182.471 29.1676 182.287 29.2139 182.13 29.3121C181.974 29.4104 181.851 29.5376 181.773 29.7052C181.689 29.8728 181.65 30.0694 181.65 30.289V33.9942H180.355V30.1619C180.355 29.8613 180.266 29.6243 180.087 29.4393C179.909 29.2601 179.674 29.1676 179.395 29.1676C179.2 29.1676 179.021 29.2139 178.865 29.3064C178.703 29.3988 178.574 29.5318 178.479 29.711C178.385 29.8902 178.334 30.1098 178.334 30.3757V33.9942H177.006L177 34Z" fill="white"/>
<path d="M189.48 33.9943C189.025 33.9943 188.628 33.9318 188.283 33.8009C187.938 33.6701 187.65 33.4882 187.432 33.2379C187.207 32.9934 187.063 32.6919 187 32.345L188.277 32.1062C188.358 32.3962 188.502 32.6066 188.703 32.7488C188.904 32.891 189.175 32.9592 189.509 32.9592C189.842 32.9592 190.113 32.891 190.308 32.7602C190.504 32.6294 190.608 32.4588 190.608 32.2654C190.608 32.1005 190.544 31.964 190.412 31.8502C190.28 31.7365 190.084 31.6569 189.814 31.6L188.807 31.3896C188.254 31.2701 187.84 31.0768 187.564 30.8095C187.288 30.5422 187.155 30.1896 187.155 29.763C187.155 29.4047 187.253 29.0919 187.455 28.8303C187.656 28.5687 187.932 28.364 188.289 28.2161C188.646 28.0682 189.06 28 189.526 28C189.969 28 190.354 28.0626 190.677 28.1877C190.999 28.3128 191.258 28.4891 191.453 28.7109C191.649 28.9327 191.787 29.1943 191.868 29.4957L190.648 29.7346C190.579 29.5299 190.458 29.3592 190.285 29.2171C190.113 29.0749 189.865 29.0066 189.543 29.0066C189.25 29.0066 189.008 29.0692 188.812 29.1943C188.617 29.3194 188.519 29.4844 188.519 29.6777C188.519 29.8483 188.582 29.9905 188.715 30.0986C188.847 30.2123 189.06 30.2976 189.353 30.3602L190.354 30.5706C190.913 30.69 191.327 30.8777 191.597 31.1393C191.868 31.4009 192 31.7308 192 32.1403C192 32.51 191.891 32.8284 191.678 33.1071C191.465 33.3858 191.166 33.6019 190.786 33.7611C190.406 33.9204 189.969 34 189.474 34L189.48 33.9943Z" fill="white"/>
<path d="M199.63 34L198 28H199.34L199.882 30.3483C199.962 30.7358 200.054 31.1585 200.15 31.6223C200.247 32.0861 200.343 32.5969 200.429 33.1605H200.268C200.354 32.6086 200.45 32.1037 200.552 31.6399C200.654 31.1761 200.751 30.7476 200.842 30.3483L201.394 28H202.611L203.153 30.3483C203.239 30.7358 203.335 31.1644 203.437 31.6282C203.539 32.092 203.63 32.6027 203.721 33.1605H203.56C203.646 32.6086 203.737 32.0978 203.834 31.6341C203.93 31.1703 204.016 30.7417 204.107 30.3483L204.649 28H206L204.365 34H203.078L202.434 31.5519C202.37 31.3053 202.306 31.0411 202.241 30.7593C202.177 30.4775 202.118 30.1898 202.059 29.8904C202 29.591 201.941 29.3092 201.882 29.0391H202.118C202.059 29.3092 202 29.5969 201.941 29.8904C201.882 30.184 201.818 30.4775 201.759 30.7593C201.7 31.047 201.635 31.3112 201.571 31.546L200.928 33.9941H199.641L199.63 34Z" fill="white"/>
<path d="M208.996 27.4586C208.722 27.4586 208.491 27.3857 208.296 27.2454C208.101 27.1052 208 26.9313 208 26.7349C208 26.5386 208.101 26.359 208.296 26.2132C208.491 26.0729 208.729 26 208.996 26C209.264 26 209.509 26.0729 209.704 26.2132C209.899 26.3534 210 26.5273 210 26.7293C210 26.9313 209.899 27.1052 209.704 27.2454C209.509 27.3857 209.271 27.4586 208.996 27.4586ZM208.137 34V28.2665H209.856V34H208.137Z" fill="white"/>
<path d="M213.862 28.3299V29.3479H211V28.3299H213.862ZM211.715 27H212.89V32.3471C212.89 32.5496 212.929 32.6974 213.008 32.7959C213.087 32.8944 213.215 32.9382 213.393 32.9382C213.447 32.9382 213.516 32.9328 213.605 32.9163C213.694 32.8999 213.763 32.889 213.817 32.8726L214 33.8796C213.872 33.9234 213.738 33.9562 213.605 33.9726C213.472 33.9891 213.339 34 213.215 34C212.732 34 212.362 33.8686 212.1 33.6005C211.844 33.3323 211.711 32.9547 211.711 32.4621V27.0055L211.715 27Z" fill="white"/>
<path d="M218.334 30.4816V34H217V26H218.312V29.4772H218.172C218.334 28.9604 218.57 28.5668 218.878 28.3084C219.186 28.0499 219.578 27.9207 220.044 27.9207C220.436 27.9207 220.778 28.0088 221.075 28.185C221.372 28.3612 221.596 28.6138 221.759 28.9545C221.922 29.2893 222 29.7004 222 30.1821V34H220.66V30.3994C220.66 30 220.559 29.6828 220.363 29.4537C220.167 29.2247 219.892 29.1131 219.545 29.1131C219.309 29.1131 219.096 29.1659 218.917 29.2717C218.738 29.3774 218.586 29.536 218.48 29.7416C218.373 29.9471 218.323 30.1938 218.323 30.4875L218.334 30.4816Z" fill="white"/>
<path d="M230.766 28.2625V29.3067H227V28.2625H230.766ZM228.092 34V27.7179C228.092 27.3361 228.174 27.0161 228.337 26.7635C228.501 26.5109 228.728 26.32 229.009 26.1909C229.289 26.0618 229.604 26 229.937 26C230.182 26 230.399 26.0168 230.585 26.0561C230.772 26.0954 230.912 26.1291 231 26.1572L230.72 27.1958C230.661 27.1789 230.585 27.1621 230.498 27.1396C230.41 27.1228 230.311 27.1116 230.188 27.1116C229.926 27.1116 229.745 27.1733 229.634 27.2968C229.523 27.4203 229.464 27.5944 229.464 27.8189V34H228.08H228.092Z" fill="white"/>
<path d="M234.952 34C234.56 34 234.219 33.913 233.923 33.7391C233.626 33.5652 233.403 33.3101 233.241 32.9797C233.078 32.6493 233 32.2435 233 31.7681V28H234.331V31.5536C234.331 31.9478 234.432 32.2609 234.628 32.487C234.829 32.713 235.103 32.8232 235.45 32.8232C235.685 32.8232 235.897 32.771 236.076 32.6667C236.255 32.5623 236.406 32.4058 236.507 32.2029C236.613 32 236.663 31.7565 236.663 31.4725V28H238V33.9246H236.736L236.719 32.4638H236.82C236.658 32.9797 236.423 33.3623 236.11 33.6174C235.796 33.8725 235.411 34 234.952 34Z" fill="white"/>
<path d="M241 26V34H240V26H241Z" fill="white"/>
<path d="M247.766 28.2625V29.3067H244V28.2625H247.766ZM245.092 34V27.7179C245.092 27.3361 245.174 27.0161 245.337 26.7635C245.501 26.5109 245.728 26.32 246.009 26.1909C246.289 26.0618 246.604 26 246.937 26C247.182 26 247.399 26.0168 247.585 26.0561C247.772 26.0954 247.912 26.1291 248 26.1572L247.72 27.1958C247.661 27.1789 247.585 27.1621 247.498 27.1396C247.41 27.1228 247.311 27.1116 247.188 27.1116C246.926 27.1116 246.745 27.1733 246.634 27.2968C246.523 27.4203 246.464 27.5944 246.464 27.8189V34H245.08H245.092Z" fill="white"/>
<path d="M249.996 27.4586C249.722 27.4586 249.491 27.3857 249.296 27.2454C249.101 27.1052 249 26.9313 249 26.7349C249 26.5386 249.101 26.359 249.296 26.2132C249.491 26.0729 249.729 26 249.996 26C250.264 26 250.509 26.0729 250.704 26.2132C250.899 26.3534 251 26.5273 251 26.7293C251 26.9313 250.899 27.1052 250.704 27.2454C250.509 27.3857 250.271 27.4586 249.996 27.4586ZM249.137 34V28.2665H250.856V34H249.137Z" fill="white"/>
<path d="M254 26V34H253V26H254Z" fill="white"/>
<path d="M257 34V28.0925H258.245L258.295 29.5145H258.2C258.284 29.1619 258.407 28.8728 258.58 28.6532C258.753 28.4335 258.954 28.2659 259.183 28.1619C259.412 28.052 259.652 28 259.903 28C260.316 28 260.645 28.1329 260.902 28.3988C261.154 28.6647 261.332 29.0636 261.438 29.5838H261.282C261.36 29.2312 261.494 28.9364 261.684 28.7052C261.874 28.4682 262.097 28.2948 262.359 28.1792C262.622 28.0636 262.895 28 263.191 28C263.532 28 263.844 28.0751 264.112 28.2312C264.386 28.3873 264.598 28.6127 264.76 28.9075C264.922 29.2023 265 29.5723 265 30.0116V33.9942H263.671V30.2254C263.671 29.8613 263.576 29.5896 263.381 29.422C263.186 29.2543 262.957 29.1676 262.683 29.1676C262.471 29.1676 262.287 29.2139 262.13 29.3121C261.974 29.4104 261.851 29.5376 261.773 29.7052C261.689 29.8728 261.65 30.0694 261.65 30.289V33.9942H260.355V30.1619C260.355 29.8613 260.266 29.6243 260.087 29.4393C259.909 29.2601 259.674 29.1676 259.395 29.1676C259.2 29.1676 259.021 29.2139 258.865 29.3064C258.703 29.3988 258.574 29.5318 258.479 29.711C258.385 29.8902 258.334 30.1098 258.334 30.3757V33.9942H257.006L257 34Z" fill="white"/>
<path d="M269.619 34C269.075 34 268.61 33.875 268.22 33.6307C267.829 33.3864 267.528 33.0398 267.317 32.5909C267.106 32.142 267 31.6193 267 31.0114C267 30.4034 267.106 29.8864 267.312 29.4375C267.517 28.9886 267.813 28.6364 268.193 28.3807C268.573 28.125 269.022 28 269.534 28C269.862 28 270.173 28.0568 270.474 28.1705C270.775 28.2841 271.034 28.4602 271.266 28.6989C271.498 28.9375 271.678 29.2386 271.805 29.608C271.931 29.9773 272 30.4148 272 30.9261V31.3523H267.591V30.4318H271.377L270.791 30.7045C270.791 30.3807 270.743 30.0909 270.648 29.8466C270.553 29.5966 270.416 29.4034 270.231 29.267C270.046 29.1307 269.814 29.0568 269.54 29.0568C269.265 29.0568 269.027 29.125 268.837 29.267C268.647 29.4091 268.499 29.5966 268.394 29.8295C268.288 30.0625 268.241 30.3239 268.241 30.6136V31.2443C268.241 31.6136 268.299 31.9205 268.415 32.1761C268.531 32.4261 268.695 32.6193 268.901 32.75C269.112 32.8807 269.355 32.9432 269.629 32.9432C269.814 32.9432 269.978 32.9148 270.131 32.858C270.284 32.8011 270.411 32.7159 270.522 32.6023C270.633 32.4886 270.712 32.3523 270.77 32.1875L271.921 32.4432C271.836 32.7557 271.683 33.0284 271.477 33.2614C271.271 33.4943 271.007 33.6761 270.696 33.8068C270.384 33.9375 270.025 34 269.624 34H269.619Z" fill="white"/>
<path d="M276.333 30.5275V34H275V28.0754H276.26L276.282 29.5362H276.176C276.338 29.0261 276.573 28.6377 276.881 28.3826C277.189 28.1275 277.581 28 278.046 28C278.438 28 278.779 28.087 279.076 28.2609C279.367 28.4348 279.597 28.6841 279.759 29.0203C279.922 29.3507 280 29.7565 280 30.2319V34H278.667V30.4464C278.667 30.0522 278.567 29.7391 278.371 29.513C278.175 29.287 277.9 29.1768 277.553 29.1768C277.318 29.1768 277.105 29.229 276.926 29.3333C276.747 29.4377 276.596 29.5942 276.489 29.7971C276.383 30 276.333 30.2435 276.333 30.5333V30.5275Z" fill="white"/>
<path d="M284.862 28.3299V29.3479H282V28.3299H284.862ZM282.715 27H283.89V32.3471C283.89 32.5496 283.929 32.6974 284.008 32.7959C284.087 32.8944 284.215 32.9382 284.393 32.9382C284.447 32.9382 284.516 32.9328 284.605 32.9163C284.694 32.8999 284.763 32.889 284.817 32.8726L285 33.8796C284.872 33.9234 284.738 33.9562 284.605 33.9726C284.472 33.9891 284.339 34 284.215 34C283.732 34 283.362 33.8686 283.1 33.6005C282.844 33.3323 282.711 32.9547 282.711 32.4621V27.0055L282.715 27Z" fill="white"/>
<path d="M37.7034 16H33V23H45C44.8556 19.113 41.6404 16 37.7034 16Z" fill="white"/>
<path d="M58 18.9945V5H68V8.06614H61.8535V11.221H67.3859V14.2095H61.8535V19H58V18.9945Z" fill="white"/>
<path d="M76 20C74.6925 20 73.5049 19.7105 72.4486 19.1374C71.3866 18.5643 70.5473 17.719 69.9307 16.6017C69.314 15.4844 69 14.1239 69 12.5087C69 10.8935 69.3083 9.50984 69.9307 8.39251C70.553 7.27518 71.3866 6.42995 72.4486 5.85681C73.5106 5.28367 74.6925 5 76 5C77.3075 5 78.4894 5.28367 79.5514 5.85681C80.6077 6.42995 81.447 7.27518 82.0693 8.39251C82.6917 9.50984 83 10.8819 83 12.5087C83 14.1355 82.6917 15.4959 82.0693 16.6133C81.447 17.7306 80.6077 18.5701 79.5514 19.1432C78.4951 19.7163 77.3132 20 76 20ZM76 16.5496C76.6509 16.5496 77.199 16.3933 77.6387 16.0865C78.0783 15.7738 78.4152 15.3223 78.6378 14.7202C78.8662 14.1181 78.9747 13.3829 78.9747 12.5145C78.9747 11.6461 78.8605 10.8993 78.6378 10.2914C78.4095 9.68931 78.0783 9.23196 77.6387 8.91934C77.199 8.60672 76.6509 8.45619 76 8.45619C75.3491 8.45619 74.8124 8.6125 74.3728 8.91934C73.9331 9.22617 73.5963 9.68931 73.3679 10.2914C73.1395 10.8935 73.0253 11.6345 73.0253 12.5145C73.0253 13.3944 73.1395 14.1181 73.3679 14.7202C73.5963 15.3223 73.9331 15.7796 74.3728 16.0865C74.8124 16.3991 75.3548 16.5496 76 16.5496Z" fill="white"/>
<path d="M84 19V5H90.1849C91.2489 5 92.1821 5.18859 92.9844 5.56577C93.7866 5.94295 94.4068 6.49208 94.8563 7.20206C95.3058 7.91204 95.5277 8.7607 95.5277 9.75357C95.5277 10.7464 95.3001 11.6006 94.845 12.2884C94.3898 12.9762 93.7525 13.4976 92.9275 13.8471C92.1024 14.1965 91.1465 14.374 90.0541 14.374H86.3556V11.4231H89.2689C89.7297 11.4231 90.128 11.3677 90.4524 11.2567C90.7824 11.1458 91.0327 10.9628 91.2034 10.7187C91.3741 10.4746 91.4652 10.1529 91.4652 9.75357C91.4652 9.3542 91.3798 9.02694 91.2034 8.77734C91.027 8.52773 90.7767 8.34469 90.4524 8.22266C90.1223 8.10618 89.7297 8.04517 89.2689 8.04517H87.8976V19H84.0057H84ZM91.7667 19L88.256 12.5713H92.3983L96 19H91.761H91.7667Z" fill="white"/>
<path d="M100.718 19L97 5H101.257L102.379 10.4303C102.524 11.1125 102.652 11.8613 102.763 12.6712C102.874 13.481 102.985 14.2908 103.096 15.1006C103.207 15.9105 103.318 16.6593 103.43 17.3471H102.674C102.807 16.6593 102.929 15.9105 103.052 15.1006C103.168 14.2908 103.296 13.481 103.424 12.6712C103.552 11.8613 103.696 11.1125 103.852 10.4303L105.097 5H108.898L110.143 10.4303C110.298 11.1125 110.443 11.8613 110.57 12.6712C110.698 13.481 110.826 14.2908 110.943 15.1006C111.059 15.9105 111.187 16.6593 111.321 17.3471H110.559C110.676 16.6593 110.793 15.9105 110.898 15.1006C111.004 14.2908 111.115 13.481 111.232 12.6712C111.348 11.8613 111.476 11.1125 111.615 10.4303L112.743 5H117L113.282 19H108.981L107.586 13.2979C107.347 12.3162 107.158 11.2512 107.014 10.1141C106.875 8.97702 106.703 7.87876 106.503 6.82488H107.497C107.258 7.87876 107.081 8.97147 106.964 10.103C106.847 11.2345 106.669 12.2995 106.425 13.2979L105.024 19H100.723H100.718Z" fill="white"/>
<path d="M117 19L121.716 5H127.106L132 19H127.527L125.837 13.5697C125.474 12.3938 125.128 11.168 124.811 9.90333C124.494 8.63312 124.189 7.37401 123.9 6.12044H124.8C124.529 7.37401 124.252 8.63312 123.97 9.90333C123.687 11.1735 123.376 12.3938 123.024 13.5697L121.416 19H117ZM120.493 16.3154V13.481H128.501V16.3154H120.493Z" fill="white"/>
<path d="M133 19V5H139.185C140.249 5 141.182 5.18859 141.984 5.56577C142.787 5.94295 143.407 6.49208 143.856 7.20206C144.306 7.91204 144.528 8.7607 144.528 9.75357C144.528 10.7464 144.3 11.6006 143.845 12.2884C143.39 12.9762 142.752 13.4976 141.927 13.8471C141.102 14.1965 140.147 14.374 139.054 14.374H135.356V11.4231H138.269C138.73 11.4231 139.128 11.3677 139.452 11.2567C139.782 11.1458 140.033 10.9628 140.203 10.7187C140.374 10.4746 140.465 10.1529 140.465 9.75357C140.465 9.3542 140.38 9.02694 140.203 8.77734C140.027 8.52773 139.777 8.34469 139.452 8.22266C139.122 8.10618 138.73 8.04517 138.269 8.04517H136.898V19H133.006H133ZM140.767 19L137.256 12.5713H141.398L145 19H140.761H140.767Z" fill="white"/>
<path d="M149.998 5V19H146V5H149.998ZM151.682 19H147.643V15.7662H151.524C152.254 15.7662 152.88 15.6553 153.4 15.439C153.92 15.2171 154.312 14.8344 154.581 14.2908C154.85 13.7472 154.984 12.9818 154.984 12.0111C154.984 11.0404 154.844 10.2694 154.569 9.72583C154.295 9.1767 153.885 8.79398 153.353 8.57211C152.821 8.35024 152.173 8.2393 151.401 8.2393H147.578V5H151.617C153.137 5 154.446 5.28288 155.545 5.84311C156.644 6.40333 157.498 7.20761 158.1 8.2504C158.702 9.29319 159 10.5468 159 12.0055C159 13.4643 158.702 14.7068 158.106 15.7552C157.509 16.8035 156.662 17.6022 155.569 18.1624C154.47 18.7227 153.178 19 151.676 19H151.682Z" fill="white"/>
<path d="M164 8.06735V5H176V8.06735H171.872V19H168.128V8.06735H164Z" fill="white"/>
<path d="M177 19V5H183.185C184.249 5 185.182 5.18859 185.984 5.56577C186.787 5.94295 187.407 6.49208 187.856 7.20206C188.306 7.91204 188.528 8.7607 188.528 9.75357C188.528 10.7464 188.3 11.6006 187.845 12.2884C187.39 12.9762 186.752 13.4976 185.927 13.8471C185.102 14.1965 184.147 14.374 183.054 14.374H179.356V11.4231H182.269C182.73 11.4231 183.128 11.3677 183.452 11.2567C183.782 11.1458 184.033 10.9628 184.203 10.7187C184.374 10.4746 184.465 10.1529 184.465 9.75357C184.465 9.3542 184.38 9.02694 184.203 8.77734C184.027 8.52773 183.777 8.34469 183.452 8.22266C183.122 8.10618 182.73 8.04517 182.269 8.04517H180.898V19H177.006H177ZM184.767 19L181.256 12.5713H185.398L189 19H184.761H184.767Z" fill="white"/>
<path d="M190 19L194.716 5H200.106L205 19H200.527L198.837 13.5697C198.474 12.3938 198.128 11.168 197.811 9.90333C197.494 8.63312 197.189 7.37401 196.9 6.12044H197.8C197.529 7.37401 197.252 8.63312 196.97 9.90333C196.687 11.1735 196.376 12.3938 196.024 13.5697L194.416 19H190ZM193.493 16.3154V13.481H201.501V16.3154H193.493Z" fill="white"/>
<path d="M206 19V5H210.13L213.462 10.4968C213.75 10.9739 214.016 11.4509 214.271 11.9223C214.526 12.3938 214.765 12.9208 214.997 13.4976C215.23 14.0689 215.474 14.7401 215.718 15.5055H215.391C215.358 15.0008 215.319 14.4128 215.275 13.7417C215.23 13.0761 215.186 12.416 215.147 11.767C215.108 11.1181 215.092 10.5745 215.092 10.1252V5H219V19H214.87L211.76 13.8914C211.411 13.309 211.1 12.7655 210.834 12.2607C210.568 11.7559 210.313 11.2235 210.064 10.6577C209.814 10.0919 209.531 9.44295 209.215 8.70523H209.609C209.659 9.36529 209.709 10.0198 209.753 10.6688C209.797 11.3177 209.836 11.9223 209.864 12.4826C209.892 13.0428 209.908 13.5087 209.908 13.8914V19H206Z" fill="white"/>
<path d="M227.184 18.9946C225.942 18.9946 224.858 18.8215 223.933 18.4699C223.009 18.1182 222.288 17.5773 221.777 16.8416C221.267 16.1059 221.006 15.17 221 14.0286H224.688C224.711 14.4451 224.824 14.7968 225.017 15.0835C225.21 15.3702 225.488 15.5866 225.845 15.7326C226.203 15.8787 226.628 15.9544 227.128 15.9544C227.542 15.9544 227.894 15.9057 228.177 15.8083C228.461 15.711 228.671 15.5757 228.818 15.4026C228.96 15.2295 229.034 15.0294 229.034 14.8022C229.034 14.5966 228.966 14.4127 228.83 14.2558C228.694 14.0989 228.467 13.9583 228.155 13.8284C227.843 13.6986 227.417 13.585 226.884 13.4822L225.443 13.1901C224.183 12.9359 223.184 12.4977 222.458 11.8756C221.732 11.2535 221.369 10.4096 221.369 9.34389C221.369 8.47836 221.613 7.71561 222.106 7.06646C222.6 6.41731 223.281 5.90881 224.149 5.54637C225.017 5.18393 226.016 5 227.15 5C228.285 5 229.312 5.18393 230.152 5.55178C230.991 5.91963 231.644 6.43895 232.104 7.10974C232.563 7.78053 232.796 8.5595 232.801 9.45209H229.074C229.04 9.0085 228.869 8.65688 228.557 8.41345C228.245 8.16461 227.774 8.04019 227.15 8.04019C226.753 8.04019 226.424 8.08346 226.169 8.17542C225.913 8.26198 225.721 8.3864 225.601 8.54869C225.482 8.70556 225.42 8.88949 225.42 9.08964C225.42 9.30603 225.488 9.48995 225.618 9.65224C225.749 9.81453 225.959 9.95518 226.243 10.0742C226.526 10.1932 226.895 10.296 227.343 10.3879L228.518 10.626C229.306 10.7828 229.982 10.9938 230.549 11.2589C231.116 11.524 231.582 11.8269 231.945 12.1785C232.308 12.5301 232.574 12.925 232.745 13.3632C232.915 13.8014 233 14.2828 233 14.8022C233 15.7002 232.767 16.4629 232.302 17.0904C231.837 17.7179 231.173 18.194 230.311 18.5131C229.448 18.8323 228.41 19 227.196 19L227.184 18.9946Z" fill="white"/>
<path d="M234 19V5H239.902C240.917 5 241.808 5.20523 242.573 5.61569C243.339 6.02615 243.93 6.60301 244.359 7.34628C244.788 8.08954 245 8.96038 245 9.9588C245 10.9572 244.783 11.8281 244.348 12.5547C243.914 13.2813 243.306 13.8471 242.519 14.2464C241.731 14.6458 240.819 14.8455 239.777 14.8455H236.248V11.8946H239.028C239.467 11.8946 239.847 11.817 240.157 11.6561C240.472 11.4952 240.711 11.2734 240.874 10.9849C241.037 10.6965 241.123 10.3582 241.123 9.9588C241.123 9.55943 241.042 9.20444 240.874 8.92155C240.711 8.63867 240.466 8.4168 240.157 8.26704C239.842 8.11727 239.467 8.03962 239.028 8.03962H237.719V19H234.005H234Z" fill="white"/>
<path d="M254 20C252.692 20 251.505 19.7105 250.449 19.1374C249.387 18.5643 248.547 17.719 247.931 16.6017C247.314 15.4844 247 14.1239 247 12.5087C247 10.8935 247.308 9.50984 247.931 8.39251C248.553 7.27518 249.387 6.42995 250.449 5.85681C251.511 5.28367 252.692 5 254 5C255.307 5 256.489 5.28367 257.551 5.85681C258.608 6.42995 259.447 7.27518 260.069 8.39251C260.692 9.50984 261 10.8819 261 12.5087C261 14.1355 260.692 15.4959 260.069 16.6133C259.447 17.7306 258.608 18.5701 257.551 19.1432C256.495 19.7163 255.313 20 254 20ZM254 16.5496C254.651 16.5496 255.199 16.3933 255.639 16.0865C256.078 15.7738 256.415 15.3223 256.638 14.7202C256.866 14.1181 256.975 13.3829 256.975 12.5145C256.975 11.6461 256.861 10.8993 256.638 10.2914C256.409 9.68931 256.078 9.23196 255.639 8.91934C255.199 8.60672 254.651 8.45619 254 8.45619C253.349 8.45619 252.812 8.6125 252.373 8.91934C251.933 9.22617 251.596 9.68931 251.368 10.2914C251.139 10.8935 251.025 11.6345 251.025 12.5145C251.025 13.3944 251.139 14.1181 251.368 14.7202C251.596 15.3223 251.933 15.7796 252.373 16.0865C252.812 16.3991 253.355 16.5496 254 16.5496Z" fill="white"/>
<path d="M262 19V5H268.185C269.249 5 270.182 5.18859 270.984 5.56577C271.787 5.94295 272.407 6.49208 272.856 7.20206C273.306 7.91204 273.528 8.7607 273.528 9.75357C273.528 10.7464 273.3 11.6006 272.845 12.2884C272.39 12.9762 271.752 13.4976 270.927 13.8471C270.102 14.1965 269.147 14.374 268.054 14.374H264.356V11.4231H267.269C267.73 11.4231 268.128 11.3677 268.452 11.2567C268.782 11.1458 269.033 10.9628 269.203 10.7187C269.374 10.4746 269.465 10.1529 269.465 9.75357C269.465 9.3542 269.38 9.02694 269.203 8.77734C269.027 8.52773 268.777 8.34469 268.452 8.22266C268.122 8.10618 267.73 8.04517 267.269 8.04517H265.898V19H262.006H262ZM269.767 19L266.256 12.5713H270.398L274 19H269.761H269.767Z" fill="white"/>
<path d="M275 8.06735V5H287V8.06735H282.872V19H279.128V8.06735H275Z" fill="white"/>
<path d="M52 12.25C52 8.24751 48.6754 5 44.5779 5H0C0 9.00249 3.32459 12.25 7.42208 12.25H22.3117V15.875H6.52415C6.52415 19.8775 9.84874 23.125 13.9405 23.125H22.306V26.75H12.9346C12.9346 30.7525 16.2592 34 20.3567 34H29.6826V32.0071H29.7338V12.25H52Z" fill="white"/>
</svg>
