<svg width="237" height="27" viewBox="0 0 237 27" fill="none" xmlns="http://www.w3.org/2000/svg">
<path d="M81 8.22473L84.9129 2L96 20.2481L92.0871 27L81 8.22473Z" fill="#A7CCD8"/>
<path d="M86 20L79.9161 10L74 20H86Z" fill="white"/>
<path d="M112 14.2757C112 15.7797 110.209 17 108 17C105.791 17 104 15.7797 104 14.2757C104 14.2352 104 14.197 104.004 14.1565H105.791C105.782 14.1947 105.778 14.2352 105.778 14.2757C105.778 14.8644 106.772 15.3411 108 15.3411C109.227 15.3411 110.222 14.8644 110.222 14.2757C110.222 13.687 109.111 13.4462 108 13.2103C106.902 12.9767 105.876 12.8742 105.185 12.3427C104.588 11.8803 104.224 11.2725 104.224 10.6051C104.224 9.16552 105.914 8 108.002 8C110.088 8 111.781 9.1679 111.781 10.6051H110.003C110.003 10.0832 109.109 9.65652 108.004 9.65652C106.9 9.65652 106.003 10.0808 106.003 10.6051C106.003 11.1271 106.92 11.3226 108.004 11.5538C109.116 11.7897 110.097 11.8565 110.819 12.3427C111.548 12.8337 112 13.5201 112 14.2757Z" fill="white"/>
<path d="M121.939 13.2127H113.959C114.307 14.4378 115.538 15.3435 117.001 15.3435C117.93 15.3435 118.766 14.9788 119.341 14.3949H121.536C120.743 15.9346 119.009 17 117.001 17C114.24 17 112 14.986 112 12.5C112 10.014 114.24 8 117.001 8C119.493 8 121.56 9.64221 121.939 11.7897C121.981 12.0209 122 12.2593 122 12.5C122.002 12.7431 121.981 12.9815 121.939 13.2127ZM114.574 11.7897H120.041C119.692 10.5646 118.461 9.6589 117.001 9.6589C115.625 9.6589 114.457 10.4597 114.031 11.5752C113.985 11.6992 113.926 11.8183 113.853 11.928L113.526 12.4309L113.732 12.5715L114.059 12.071C114.174 11.897 114.368 11.7921 114.574 11.7897Z" fill="white"/>
<path d="M132 8L127.959 16H126.041L122 8H123.762L126.689 13.7977C126.814 14.0436 126.878 14.3141 126.878 14.5892V14.8888H127.118V14.5892C127.118 14.3141 127.184 14.0436 127.306 13.7977L130.234 8H132Z" fill="white"/>
<path d="M201 11.6866V16H199.13V11.6736C199.13 10.4788 198.189 9.51036 197.027 9.51036C195.284 9.51036 193.87 10.6725 193.87 12.1066V16H192V8.21547H193.87V8.32211C193.87 8.56368 193.816 8.80307 193.708 9.02505L193.287 9.89991L193.515 9.99349L193.844 9.30579C194.03 8.91623 194.364 8.60285 194.785 8.43092C195.465 8.15236 196.232 7.99785 197.043 8.00002C199.236 8.00655 201 9.66052 201 11.6866Z" fill="white"/>
<path d="M140.939 13.2127H132.959C133.307 14.4378 134.538 15.3435 136.001 15.3435C136.93 15.3435 137.766 14.9788 138.341 14.3949H140.536C139.743 15.9346 138.009 17 136.001 17C133.24 17 131 14.986 131 12.5C131 10.014 133.24 8 136.001 8C138.493 8 140.56 9.64221 140.939 11.7897C140.981 12.0209 141 12.2593 141 12.5C141.002 12.7431 140.981 12.9815 140.939 13.2127ZM133.574 11.7897H139.041C138.692 10.5646 137.461 9.6589 136.001 9.6589C134.625 9.6589 133.457 10.4597 133.031 11.5752C132.985 11.6992 132.926 11.8183 132.853 11.928L132.526 12.4309L132.732 12.5715L133.059 12.071C133.174 11.897 133.368 11.7921 133.574 11.7897Z" fill="white"/>
<path d="M151 11.6866V16H149.13V11.6736C149.13 10.4788 148.189 9.51036 147.027 9.51036C145.284 9.51036 143.87 10.6725 143.87 12.1066V16H142V8.21547H143.87V8.32211C143.87 8.56368 143.816 8.80307 143.708 9.02505L143.287 9.89991L143.515 9.99349L143.844 9.30579C144.03 8.91623 144.364 8.60285 144.785 8.43092C145.465 8.15236 146.232 7.99785 147.043 8.00002C149.233 8.00655 151 9.66052 151 11.6866Z" fill="white"/>
<path d="M171 11.6736V16H169.133V11.6736C169.133 10.4788 168.194 9.51034 167.032 9.51034C165.872 9.51034 164.933 10.6725 164.933 12.1066V16H163.067V11.6736C163.067 10.4788 162.128 9.51034 160.968 9.51034C159.808 9.51034 158.867 10.6725 158.867 12.1066V16H157V8.21328H158.85C158.836 8.32645 158.81 8.43962 158.77 8.54843L158.282 9.9086L158.519 9.9826L158.791 9.22743C158.989 8.67901 159.465 8.25246 160.066 8.10665C160.355 8.03701 160.658 8.00001 160.968 8.00001C162.222 8.00001 163.341 8.53973 164.067 9.38412C164.792 8.53537 165.854 8.00001 167.035 8.00001C169.225 7.99566 171 9.6431 171 11.6736Z" fill="white"/>
<path d="M182 12.5C182 14.986 179.761 17 177 17C174.239 17 172 14.986 172 12.5C172 10.014 174.239 8 177 8C179.761 7.99762 182 10.014 182 12.5ZM180.14 12.5C180.14 10.9293 178.734 9.65652 177 9.65652C175.266 9.65652 173.86 10.9293 173.86 12.5C173.86 14.0707 175.266 15.3435 177 15.3435C178.734 15.3411 180.14 14.0683 180.14 12.5Z" fill="white"/>
<path d="M191 8V15.7846H189.129V15.678C189.129 15.4365 189.184 15.1972 189.292 14.9752L189.713 14.1006L189.485 14.0071L189.155 14.6946C188.969 15.084 188.635 15.3973 188.214 15.5692C187.534 15.8477 186.767 16.0022 185.955 16C183.765 15.9935 182 14.3378 182 12.3122V8H183.871V12.3253C183.871 13.5197 184.812 14.4879 185.976 14.4879C187.72 14.4879 189.134 13.3261 189.134 11.8923V8H191Z" fill="white"/>
<path d="M206 15.4279V17H204.947C203.551 17 202.419 15.9949 202.419 14.7548V10.0409H202V8.69466H202.422V6H204.106V8.69466H205.79V10.0409H204.498C204.35 10.0409 204.206 9.97762 204.102 9.86468L203.765 9.50554L203.606 9.67495L203.943 10.0341C204.049 10.147 204.108 10.2984 204.108 10.4565V14.7526C204.108 15.1253 204.485 15.4257 204.951 15.4257H206V15.4279Z" fill="white"/>
<path d="M216 8.23358V16.7617H214.14V12.4976C214.14 10.9269 212.734 9.65413 211.001 9.65413C209.268 9.65413 207.862 10.9269 207.862 12.4976C207.862 14.0683 208.798 15.3411 209.956 15.3411C211.111 15.3411 212.047 14.2805 212.047 12.9719H213.906C213.906 15.1957 212.138 17 209.953 17C207.771 17 206 14.986 206 12.5C206 10.014 208.239 8 210.999 8C211.789 8 212.536 8.16684 213.2 8.46001C213.628 8.65069 213.972 8.99629 214.161 9.43008L214.489 10.1833L214.716 10.0808L214.297 9.12262C214.192 8.8795 214.136 8.61732 214.136 8.35276V8.23596H216V8.23358Z" fill="white"/>
<path d="M217 7.91273V6H219V7.91273H217ZM217 17V8.39151H219V17H217Z" fill="white"/>
<path d="M229 11.6866V16H227.13V11.6736C227.13 10.4788 226.189 9.51036 225.027 9.51036C223.284 9.51036 221.87 10.6725 221.87 12.1066V16H220V8.21547H221.87V8.32211C221.87 8.56368 221.816 8.80307 221.708 9.02505L221.287 9.89991L221.515 9.99349L221.844 9.30579C222.03 8.91623 222.364 8.60285 222.785 8.43092C223.465 8.15236 224.232 7.99785 225.043 8.00002C227.236 8.00655 229 9.66052 229 11.6866Z" fill="white"/>
<path d="M237 14.2757C237 15.7797 235.209 17 233 17C230.791 17 229 15.7797 229 14.2757C229 14.2352 229 14.197 229.004 14.1565H230.791C230.782 14.1947 230.778 14.2352 230.778 14.2757C230.778 14.8644 231.772 15.3411 233 15.3411C234.228 15.3411 235.222 14.8644 235.222 14.2757C235.222 13.687 234.111 13.4462 233 13.2103C231.902 12.9767 230.876 12.8742 230.185 12.3427C229.588 11.8803 229.224 11.2725 229.224 10.6051C229.224 9.16552 230.914 8 233.002 8C235.088 8 236.781 9.1679 236.781 10.6051H235.001C235.001 10.0832 234.107 9.65652 233.002 9.65652C231.898 9.65652 231.001 10.0808 231.001 10.6051C231.001 11.1271 231.918 11.3226 233.002 11.5538C234.113 11.7897 235.095 11.8565 235.817 12.3427C236.548 12.8337 237 13.5201 237 14.2757Z" fill="white"/>
<path d="M10.8983 9.34956C11.5141 9.34956 12.0482 9.46985 12.5005 9.71043C12.9624 9.94139 13.3185 10.2974 13.5687 10.7786C13.8285 11.2598 13.9584 11.866 13.9584 12.5974V17H12.9336V12.6984C12.9336 11.8997 12.7411 11.2983 12.3562 10.8941C11.9809 10.4803 11.4468 10.2734 10.7539 10.2734C10.2343 10.2734 9.78197 10.3841 9.39704 10.6054C9.02174 10.8171 8.72823 11.1299 8.51652 11.5437C8.31444 11.9478 8.21339 12.4386 8.21339 13.016V17H7.18852V12.6984C7.18852 11.8997 6.99606 11.2983 6.61113 10.8941C6.2262 10.4803 5.68731 10.2734 4.99444 10.2734C4.48441 10.2734 4.03693 10.3841 3.652 10.6054C3.26707 10.8171 2.96875 11.1299 2.75704 11.5437C2.55496 11.9478 2.45391 12.4386 2.45391 13.016V17H1.42904V9.42174H2.41061V11.4715L2.25183 11.1106C2.48278 10.5621 2.85328 10.1339 3.3633 9.82591C3.88296 9.50835 4.49403 9.34956 5.19652 9.34956C5.93751 9.34956 6.56783 9.53722 7.08748 9.91252C7.60713 10.2782 7.94394 10.8315 8.09791 11.5725L7.69374 11.4137C7.91507 10.7979 8.30481 10.3023 8.86296 9.92696C9.43073 9.54203 10.1092 9.34956 10.8983 9.34956ZM21.4869 17V15.3256L21.4435 15.0513V12.251C21.4435 11.6062 21.2607 11.1106 20.895 10.7642C20.539 10.4177 20.0049 10.2445 19.2928 10.2445C18.802 10.2445 18.3353 10.3263 17.8926 10.4899C17.4499 10.6535 17.0746 10.87 16.7667 11.1395L16.3048 10.3744C16.6897 10.0472 17.1516 9.79704 17.6905 9.62382C18.2294 9.44098 18.7972 9.34956 19.3938 9.34956C20.3754 9.34956 21.1308 9.59496 21.6601 10.0857C22.199 10.5669 22.4684 11.3031 22.4684 12.2943V17H21.4869ZM18.8742 17.0722C18.3064 17.0722 17.8108 16.9808 17.3874 16.7979C16.9736 16.6054 16.656 16.3456 16.4347 16.0184C16.2133 15.6816 16.1027 15.2967 16.1027 14.8637C16.1027 14.4691 16.1941 14.113 16.3769 13.7955C16.5694 13.4683 16.8773 13.2085 17.3008 13.016C17.7338 12.8139 18.3112 12.7129 19.0329 12.7129H21.6456V13.4779H19.0618C18.3304 13.4779 17.8204 13.6078 17.5317 13.8677C17.2526 14.1275 17.1131 14.4499 17.1131 14.8348C17.1131 15.2678 17.2815 15.6143 17.6183 15.8741C17.9551 16.1339 18.4267 16.2638 19.0329 16.2638C19.6103 16.2638 20.1059 16.1339 20.5197 15.8741C20.9431 15.6046 21.2511 15.2197 21.4435 14.7193L21.6745 15.4266C21.482 15.927 21.1452 16.3264 20.6641 16.6247C20.1925 16.923 19.5959 17.0722 18.8742 17.0722ZM28.2689 17.0722C27.5472 17.0722 26.8976 16.9086 26.3203 16.5814C25.7525 16.2542 25.305 15.8019 24.9778 15.2245C24.6506 14.6375 24.487 13.9639 24.487 13.2037C24.487 12.4338 24.6506 11.7602 24.9778 11.1828C25.305 10.6054 25.7525 10.1579 26.3203 9.84035C26.8976 9.51316 27.5472 9.34956 28.2689 9.34956C28.9329 9.34956 29.5248 9.49872 30.0444 9.79704C30.5737 10.0954 30.9923 10.5332 31.3003 11.1106C31.6178 11.6784 31.7766 12.3761 31.7766 13.2037C31.7766 14.0216 31.6226 14.7193 31.3147 15.2967C31.0067 15.8741 30.5881 16.3168 30.0589 16.6247C29.5392 16.923 28.9426 17.0722 28.2689 17.0722ZM28.3411 16.1628C28.88 16.1628 29.3612 16.0425 29.7846 15.8019C30.2176 15.5517 30.5545 15.2053 30.795 14.7626C31.0452 14.3103 31.1703 13.7907 31.1703 13.2037C31.1703 12.607 31.0452 12.0874 30.795 11.6447C30.5545 11.202 30.2176 10.8604 29.7846 10.6198C29.3612 10.3696 28.88 10.2445 28.3411 10.2445C27.8118 10.2445 27.3355 10.3696 26.9121 10.6198C26.4887 10.8604 26.1518 11.202 25.9016 11.6447C25.6514 12.0874 25.5263 12.607 25.5263 13.2037C25.5263 13.7907 25.6514 14.3103 25.9016 14.7626C26.1518 15.2053 26.4887 15.5517 26.9121 15.8019C27.3355 16.0425 27.8118 16.1628 28.3411 16.1628ZM31.1992 17V14.7193L31.3003 13.1892L31.1559 11.6591V6.28939H32.1808V17H31.1992ZM38.254 17.0722C37.4649 17.0722 36.772 16.9086 36.1754 16.5814C35.5787 16.2446 35.112 15.7875 34.7752 15.2101C34.4384 14.6231 34.27 13.9543 34.27 13.2037C34.27 12.453 34.4288 11.789 34.7463 11.2117C35.0735 10.6343 35.5162 10.182 36.0743 9.85478C36.6421 9.51797 37.2772 9.34956 37.9797 9.34956C38.6918 9.34956 39.3222 9.51316 39.8707 9.84035C40.4288 10.1579 40.8667 10.6102 41.1842 11.1972C41.5018 11.7746 41.6606 12.4434 41.6606 13.2037C41.6606 13.2518 41.6558 13.3047 41.6462 13.3624C41.6462 13.4106 41.6462 13.4635 41.6462 13.5212H35.0495V12.7562H41.0976L40.6935 13.0593C40.6935 12.5108 40.5732 12.0248 40.3326 11.6014C40.1016 11.1683 39.7841 10.8315 39.3799 10.591C38.9757 10.3504 38.509 10.2301 37.9797 10.2301C37.4601 10.2301 36.9933 10.3504 36.5795 10.591C36.1657 10.8315 35.8434 11.1683 35.6124 11.6014C35.3815 12.0344 35.266 12.53 35.266 13.0882V13.247C35.266 13.8243 35.3911 14.3344 35.6413 14.777C35.9011 15.2101 36.2572 15.5517 36.7095 15.8019C37.1714 16.0425 37.6958 16.1628 38.2828 16.1628C38.7448 16.1628 39.173 16.081 39.5675 15.9174C39.9717 15.7538 40.3182 15.5036 40.6069 15.1668L41.1842 15.8308C40.8474 16.235 40.424 16.5429 39.914 16.7546C39.4136 16.9663 38.8602 17.0722 38.254 17.0722ZM50.6135 17.0722C49.8822 17.0722 49.223 16.9086 48.636 16.5814C48.0586 16.2446 47.6015 15.7875 47.2647 15.2101C46.9279 14.6231 46.7595 13.9543 46.7595 13.2037C46.7595 12.4434 46.9279 11.7746 47.2647 11.1972C47.6015 10.6198 48.0586 10.1675 48.636 9.84035C49.2134 9.51316 49.8726 9.34956 50.6135 9.34956C51.3641 9.34956 52.0281 9.51316 52.6055 9.84035C53.1926 10.1675 53.6497 10.6198 53.9768 11.1972C54.3137 11.7746 54.4821 12.4434 54.4821 13.2037C54.4821 13.9543 54.3137 14.6231 53.9768 15.2101C53.6497 15.7875 53.1926 16.2446 52.6055 16.5814C52.0185 16.9086 51.3545 17.0722 50.6135 17.0722ZM50.6135 16.1628C51.1621 16.1628 51.648 16.0425 52.0715 15.8019C52.4949 15.5517 52.8269 15.2053 53.0675 14.7626C53.3177 14.3103 53.4428 13.7907 53.4428 13.2037C53.4428 12.607 53.3177 12.0874 53.0675 11.6447C52.8269 11.202 52.4949 10.8604 52.0715 10.6198C51.648 10.3696 51.1669 10.2445 50.628 10.2445C50.0891 10.2445 49.6079 10.3696 49.1845 10.6198C48.7611 10.8604 48.4243 11.202 48.1741 11.6447C47.9239 12.0874 47.7988 12.607 47.7988 13.2037C47.7988 13.7907 47.9239 14.3103 48.1741 14.7626C48.4243 15.2053 48.7611 15.5517 49.1845 15.8019C49.6079 16.0425 50.0843 16.1628 50.6135 16.1628ZM60.443 9.34956C61.0588 9.34956 61.5977 9.46985 62.0596 9.71043C62.5312 9.94139 62.8969 10.2974 63.1567 10.7786C63.4261 11.2598 63.5609 11.866 63.5609 12.5974V17H62.536V12.6984C62.536 11.8997 62.3339 11.2983 61.9297 10.8941C61.5352 10.4803 60.977 10.2734 60.2553 10.2734C59.7164 10.2734 59.2449 10.3841 58.8407 10.6054C58.4461 10.8171 58.1382 11.1299 57.9169 11.5437C57.7052 11.9478 57.5993 12.4386 57.5993 13.016V17H56.5744V9.42174H57.556V11.5003L57.3972 11.1106C57.6378 10.5621 58.0227 10.1339 58.552 9.82591C59.0813 9.50835 59.7116 9.34956 60.443 9.34956Z" fill="white"/>
</svg>
