<svg width="23" height="22" viewBox="0 0 23 22" fill="none" xmlns="http://www.w3.org/2000/svg">
<path d="M2.00438 0.576372C-0.992373 2.87176 -0.609808 7.04809 3.02456 11.7345C4.5867 13.743 8.73115 17.8555 10.7396 19.3858C12.9075 21.0436 15.2666 22 17.2113 22C19.9212 22 22.0253 20.3422 22.0253 18.2062C22.0253 17.3455 21.7384 17.0904 19.2836 15.6558C17.7852 14.7631 16.223 14.0299 15.8724 14.0299C15.4898 14.0299 14.6928 14.3168 14.0871 14.6994C13.4494 15.082 12.7162 15.2732 12.3336 15.1776C11.441 14.9544 6.72268 10.1405 6.72268 9.43912C6.72268 9.18408 7.00961 8.48271 7.36029 7.90886C7.71098 7.33502 7.9979 6.53801 7.9979 6.15544C7.9979 5.80476 7.26465 4.24262 6.372 2.74424C4.9055 0.193808 4.68234 0.00252533 3.75781 0.00252533C3.18396 0.00252533 2.41883 0.257568 2.00438 0.576372Z" fill="currentColor"/>
</svg>
