<svg width="20" height="20" viewBox="0 0 20 20" fill="none" xmlns="http://www.w3.org/2000/svg">
<path d="M18.7402 16.8145C19.0742 17.1855 19.0742 17.7422 18.7031 18.0762L17.6641 19.1152C17.3301 19.4863 16.7734 19.4863 16.4023 19.1152L12.7285 15.4414C12.543 15.2559 12.4688 15.0332 12.4688 14.8105V14.1797C11.1328 15.2188 9.5 15.8125 7.71875 15.8125C3.45117 15.8125 0 12.3613 0 8.09375C0 3.86328 3.45117 0.375 7.71875 0.375C11.9492 0.375 15.4375 3.86328 15.4375 8.09375C15.4375 9.91211 14.8066 11.5449 13.8047 12.8438H14.3984C14.6211 12.8438 14.8438 12.9551 15.0293 13.1035L18.7402 16.8145ZM7.71875 12.8438C10.3164 12.8438 12.4688 10.7285 12.4688 8.09375C12.4688 5.49609 10.3164 3.34375 7.71875 3.34375C5.08398 3.34375 2.96875 5.49609 2.96875 8.09375C2.96875 10.7285 5.08398 12.8438 7.71875 12.8438Z" fill="white"/>
</svg>
