<svg width="31" height="31" viewBox="0 0 31 31" fill="none" xmlns="http://www.w3.org/2000/svg">
<path d="M5.72857 8.77803C5.21429 9.32452 5 10.3334 5 12.099V14.6633L10.1 17.7741C13.5286 19.834 15.2857 21.1371 15.3714 21.6836C15.5429 22.8607 22.4429 26.3498 23.9 25.9715C24.9714 25.6772 28.9571 22.7766 29 22.2301C29 22.0199 25.9143 20.3804 22.1857 18.5308C15.4143 15.2518 15.3286 15.2098 15.2 16.2187L15.0714 17.2697L13.8714 16.3028C12.9714 15.5881 12.5 14.7054 11.9857 12.4353C11.6429 10.7958 11.0429 9.15637 10.6571 8.73599C9.75714 7.72708 6.67143 7.76912 5.72857 8.77803Z" fill="currentColor"/>
<path d="M26.5 26.5C26.2083 26.7917 26 27.6667 26 28.5C26 29.3333 26.2083 30.2083 26.5 30.5C27.1667 31.1667 29.8333 31.1667 30.5 30.5C31.1667 29.8333 31.1667 27.1667 30.5 26.5C29.8333 25.8333 27.1667 25.8333 26.5 26.5Z" fill="currentColor"/>
<path d="M5.21732 17.7C5.09043 18.0938 4.96354 19.625 4.96354 21.2C4.96354 23.2125 4.66746 24.7438 3.86381 26.8C2.5526 30.0375 2.72178 31 4.45597 31C5.59799 31 5.80948 30.7375 7.20529 27.3688C8.05123 25.4 8.85488 23.7812 9.06636 23.7812C9.23555 23.7812 9.57393 25.1375 9.74312 26.8438C10.2507 30.9563 10.2507 31 11.7311 31H13V26.275V21.55L9.40474 19.275C7.41677 18.05 5.72488 17 5.64029 17C5.5557 17 5.34421 17.3063 5.21732 17.7Z" fill="currentColor"/>
<path d="M24.9903 9.71938C22.893 10.8977 22.5155 11.7269 23.3964 13.298C24.1094 14.5636 24.1094 14.6072 23.3125 14.1708C22.893 13.9089 22.18 13.1234 21.7605 12.4251C20.8797 10.8104 19.5794 10.7231 17.9855 12.1633C17.3563 12.7306 16.8949 13.298 17.0208 13.4289C17.1466 13.5162 19.6213 14.9127 22.5994 16.5274C27.6747 19.3205 27.9264 19.4078 27.9683 18.4476C28.0942 16.4401 27.8425 14.5199 27.2553 12.9925C26.8778 12.076 26.71 10.9413 26.8778 10.1994C27.2133 8.71563 26.9617 8.67199 24.9903 9.71938Z" fill="currentColor"/>
<path d="M6.67249 0.712624C5.74952 1.75599 5.78965 4.48479 6.71262 5.32751C7.75599 6.25048 10.4848 6.21035 11.3275 5.28738C12.2505 4.24401 12.2104 1.51521 11.2874 0.672494C10.244 -0.250482 7.51521 -0.210352 6.67249 0.712624Z" fill="currentColor"/>
</svg>
