<svg width="25" height="25" viewBox="0 0 25 25" fill="none" xmlns="http://www.w3.org/2000/svg">
<path id="Vector" d="M2.2751 0.652174C-1.1264 3.26087 -0.692169 8.00725 3.43305 13.3333C5.20617 15.6159 9.91037 20.2899 12.1901 22.029C14.6508 23.913 17.3285 25 19.5359 25C22.6117 25 25 23.1159 25 20.6884C25 19.7101 24.6743 19.4203 21.888 17.7899C20.1872 16.7754 18.4141 15.942 18.0161 15.942C17.5818 15.942 16.6772 16.2681 15.9896 16.7029C15.2659 17.1377 14.4336 17.3551 13.9994 17.2464C12.9862 16.9928 7.63065 11.5217 7.63065 10.7246C7.63065 10.4348 7.95632 9.63768 8.35437 8.98551C8.75242 8.33333 9.07809 7.42754 9.07809 6.99275C9.07809 6.5942 8.24581 4.81884 7.2326 3.11594C5.56804 0.217392 5.31473 0 4.26533 0C3.61398 0 2.74552 0.289856 2.2751 0.652174Z" fill="#303030"/>
</svg>
