<svg width="28" height="28" viewBox="0 0 28 28" fill="none" xmlns="http://www.w3.org/2000/svg">
<path id="Vector" d="M8.56311 0.85973C5.57282 2.02538 2 5.6389 0.873786 8.6696C-0.291262 11.7392 -0.291262 16.2463 0.873786 19.3159C2 22.4243 5.57282 25.999 8.67961 27.1258C11.7476 28.2914 16.2524 28.2914 19.3204 27.1258C22.4272 25.999 26 22.4243 27.1262 19.3159C28.2913 16.2463 28.2913 11.7392 27.1262 8.6696C26 5.56119 22.4272 1.98653 19.3204 0.85973C16.2913 -0.305923 11.5534 -0.267067 8.56311 0.85973ZM14.932 3.34645C15.0485 3.69615 15.165 6.49372 15.165 9.56327V15.1584H10.7379C5.80583 15.1584 5.06796 15.003 5.06796 13.9927C5.06796 13.0214 5.80583 12.8271 9.57282 12.8271H12.835V8.39761C12.835 3.46302 12.9903 2.72477 14 2.72477C14.3883 2.72477 14.8155 2.99676 14.932 3.34645Z" fill="#303030"/>
</svg>
