<svg width="32" height="31" viewBox="0 0 32 31" fill="none" xmlns="http://www.w3.org/2000/svg">
<rect width="32" height="31" rx="6" fill="#303030"/>
<path d="M25.8136 10.3428C26.2467 11.8586 26.2467 15.1067 26.2467 15.1067C26.2467 15.1067 26.2467 18.3188 25.8136 19.8707C25.5971 20.7368 24.9113 21.3865 24.0813 21.603C22.5294 22 16.394 22 16.394 22C16.394 22 10.2226 22 8.67069 21.603C7.84061 21.3865 7.15489 20.7368 6.93835 19.8707C6.50526 18.3188 6.50526 15.1067 6.50526 15.1067C6.50526 15.1067 6.50526 11.8586 6.93835 10.3428C7.15489 9.47665 7.84061 8.79093 8.67069 8.57439C10.2226 8.1413 16.394 8.1413 16.394 8.1413C16.394 8.1413 22.5294 8.1413 24.0813 8.57439C24.9113 8.79093 25.5971 9.47665 25.8136 10.3428ZM14.373 18.0301L19.4978 15.1067L14.373 12.1834V18.0301Z" fill="white"/>
</svg>
