<svg width="31" height="30" viewBox="0 0 31 30" fill="none" xmlns="http://www.w3.org/2000/svg">
<rect width="31" height="30" rx="6" fill="#F5F5F7"/>
<path d="M25.3474 10.6171C25.7703 12.0972 25.7703 15.2689 25.7703 15.2689C25.7703 15.2689 25.7703 18.4054 25.3474 19.9208C25.136 20.7666 24.4664 21.4009 23.6558 21.6123C22.1405 22 16.1495 22 16.1495 22C16.1495 22 10.1232 22 8.60785 21.6123C7.7973 21.4009 7.12772 20.7666 6.91627 19.9208C6.49338 18.4054 6.49338 15.2689 6.49338 15.2689C6.49338 15.2689 6.49338 12.0972 6.91627 10.6171C7.12772 9.77131 7.7973 9.10173 8.60785 8.89028C10.1232 8.46739 16.1495 8.46739 16.1495 8.46739C16.1495 8.46739 22.1405 8.46739 23.6558 8.89028C24.4664 9.10173 25.136 9.77131 25.3474 10.6171ZM14.176 18.1235L19.1802 15.2689L14.176 12.4144V18.1235Z" fill="#171717"/>
</svg>
